<?xml version="1.0" encoding="UTF-8"?>
<svg id="Layer_1" xmlns="http://www.w3.org/2000/svg" xmlns:xlink="http://www.w3.org/1999/xlink" version="1.1" viewBox="0 0 1008 623">
  <!-- Generator: Adobe Illustrator 29.7.1, SVG Export Plug-In . SVG Version: 2.1.1 Build 8)  -->
  <defs>
    <style>
      .st0 {
        stroke: #cbd5e0;
        stroke-width: 2px;
      }

      .st0, .st1, .st2 {
        fill: #e2e8f0;
      }

      .st3 {
        fill: url(#linear-gradient1);
      }

      .st4 {
        fill: url(#linear-gradient);
      }

      .st5 {
        opacity: .4;
      }

      .st2, .st6 {
        fill-rule: evenodd;
      }

      .st6 {
        fill: url(#linear-gradient2);
      }
    </style>
    <linearGradient id="linear-gradient" x1="0" y1="70.89" x2="1008" y2="70.89" gradientTransform="translate(0 623.89) scale(1 -1)" gradientUnits="userSpaceOnUse">
      <stop offset="0" stop-color="#b7c2d0"/>
      <stop offset=".03" stop-color="#cad4db"/>
      <stop offset=".06" stop-color="#beccde"/>
      <stop offset=".13" stop-color="#b7c2d0" stop-opacity=".3"/>
      <stop offset=".87" stop-color="#b7c2d0" stop-opacity=".3"/>
      <stop offset=".94" stop-color="#beccde"/>
      <stop offset=".97" stop-color="#cad4db"/>
      <stop offset="1" stop-color="#b7c2d0"/>
    </linearGradient>
    <linearGradient id="linear-gradient1" x1="504" y1="67.89" x2="504" y2="55.89" gradientTransform="translate(0 623.89) scale(1 -1)" gradientUnits="userSpaceOnUse">
      <stop offset="0" stop-color="#d1dbe9" stop-opacity=".6"/>
      <stop offset="1" stop-color="#aab5c6" stop-opacity=".6"/>
    </linearGradient>
    <linearGradient id="linear-gradient2" x1="444.72" y1="70.89" x2="566.95" y2="70.89" gradientTransform="translate(0 623.89) scale(1 -1)" gradientUnits="userSpaceOnUse">
      <stop offset="0" stop-color="#cfd9e7"/>
      <stop offset=".32" stop-color="#cfd9e7" stop-opacity="0"/>
      <stop offset=".66" stop-color="#cfd9e7" stop-opacity="0"/>
      <stop offset="1" stop-color="#cfd9e7"/>
    </linearGradient>
  </defs>
  <g class="st5">
    <ellipse cx="504.5" cy="574" rx="452.5" ry="5"/>
  </g>
  <path class="st0" d="M126,1h760c14.91,0,27,12.09,27,27v522c0,1.66-1.34,3-3,3H102c-1.66,0-3-1.34-3-3V28c0-14.91,12.09-27,27-27Z"/>
  <path class="st1" d="M103,27c0-12.15,9.85-22,22-22h762c12.15,0,22,9.85,22,22v506H103V27Z"/>
  <path class="st1" d="M0,552c0-1.1.9-2,2-2h1004c1.1,0,2,.9,2,2v4H0v-4Z"/>
  <path class="st4" d="M0,552c0-1.1.9-2,2-2h1004c1.1,0,2,.9,2,2v4H0v-4Z"/>
  <path class="st1" d="M0,556h1008l-20.35,4.1c-26.03,5.25-52.52,7.9-79.08,7.9H97.91c-29.18,0-58.28-3.19-86.77-9.53l-11.14-2.47Z"/>
  <path class="st3" d="M0,556h1008l-20.35,4.1c-26.03,5.25-52.52,7.9-79.08,7.9H97.91c-29.18,0-58.28-3.19-86.77-9.53l-11.14-2.47Z"/>
  <path class="st2" d="M430.03,550c.51,3.35-1.98,6,5.97,6h137c7.95,0,5.45-2.65,5.97-6h-148.93Z"/>
  <path class="st6" d="M430.03,550c.51,3.35-1.98,6,5.97,6h137c7.95,0,5.45-2.65,5.97-6h-148.93Z"/>
</svg>