<svg width="50" height="50" viewBox="0 0 50 50" fill="none" xmlns="http://www.w3.org/2000/svg">
<rect width="50" height="50" rx="25" fill="white"/>
<path d="M15.5166 14.0839C13.8646 14.0839 12.5244 15.6474 12.5244 17.5748C12.5244 17.6259 12.5244 17.6714 12.5293 17.7226H12.5244V32.2775C12.5244 34.2845 13.923 35.9162 15.6433 35.9162H34.3568C36.077 35.9162 37.4757 34.2845 37.4757 32.2775V17.7226H37.4708C37.4708 17.6714 37.4757 17.6259 37.4757 17.5748C37.4757 15.6474 36.1355 14.0839 34.4835 14.0839H15.5166ZM35.1365 21.3784V32.2775C35.1365 32.7778 34.7856 33.1872 34.3568 33.1872H15.6433C15.2145 33.1872 14.8636 32.7778 14.8636 32.2775V21.3784L22.4075 28.0532C23.9377 29.412 26.0576 29.412 27.5926 28.0532L35.1365 21.3784ZM14.8636 17.5748C14.8636 17.154 15.156 16.8129 15.5166 16.8129H34.4835C34.8441 16.8129 35.1365 17.154 35.1365 17.5748C35.1365 17.8136 35.039 18.041 34.8782 18.1831L26.1794 25.8813C25.4825 26.4953 24.5176 26.4953 23.8207 25.8813L15.1219 18.1831C14.9611 18.041 14.8636 17.8136 14.8636 17.5748Z" fill="#C63200"/>
</svg>
