<svg width="311" height="450" viewBox="0 0 311 450" fill="none" xmlns="http://www.w3.org/2000/svg">
<rect width="311" height="450" rx="20" fill="white"/>
<path d="M54.7316 56V45.024H57.1156V56H54.7316ZM59.3521 56V47.584H61.1921L61.3681 48.736H61.4801C61.6721 48.4587 61.9015 48.2187 62.1681 48.016C62.4455 47.8133 62.7548 47.6587 63.0961 47.552C63.4375 47.4453 63.8108 47.392 64.2161 47.392C64.7708 47.392 65.2561 47.4933 65.6721 47.696C66.0881 47.8987 66.4081 48.2187 66.6321 48.656C66.8668 49.0933 66.9841 49.664 66.9841 50.368V56H64.7601V50.72C64.7601 50.4533 64.7281 50.2293 64.6641 50.048C64.6001 49.856 64.5041 49.7013 64.3761 49.584C64.2588 49.456 64.1095 49.3653 63.9281 49.312C63.7468 49.2587 63.5441 49.232 63.3201 49.232C62.9895 49.232 62.6908 49.312 62.4241 49.472C62.1575 49.632 61.9495 49.8507 61.8001 50.128C61.6508 50.4053 61.5761 50.7253 61.5761 51.088V56H59.3521ZM73.7658 56L71.1258 47.584H73.4618L74.5178 51.712C74.5711 51.9253 74.6191 52.1547 74.6618 52.4C74.7151 52.6453 74.7631 52.864 74.8058 53.056C74.8484 53.248 74.8804 53.3867 74.9018 53.472H75.0138C75.0564 53.2587 75.0991 53.04 75.1418 52.816C75.1951 52.5813 75.2431 52.3627 75.2858 52.16C75.3391 51.9467 75.3764 51.7867 75.3978 51.68L76.4058 47.584H78.7258L79.7658 51.696C79.8084 51.8453 79.8511 52.032 79.8938 52.256C79.9364 52.4693 79.9844 52.688 80.0378 52.912C80.0911 53.1253 80.1338 53.312 80.1658 53.472H80.2618C80.2831 53.3227 80.3151 53.1467 80.3578 52.944C80.4111 52.7413 80.4591 52.5333 80.5017 52.32C80.5551 52.1067 80.6031 51.9147 80.6458 51.744L81.6858 47.584H83.8298L81.2058 56H78.9178L77.9898 52.24C77.9471 52.0373 77.8938 51.8133 77.8298 51.568C77.7658 51.312 77.7071 51.0613 77.6538 50.816C77.6111 50.5707 77.5738 50.3573 77.5418 50.176H77.4458C77.4458 50.272 77.4244 50.4213 77.3818 50.624C77.3391 50.816 77.2858 51.0507 77.2218 51.328C77.1684 51.5947 77.0991 51.8987 77.0138 52.24L76.0538 56H73.7658ZM84.8834 56V44.432H87.1074V48.512H87.2194C87.4007 48.288 87.614 48.096 87.8594 47.936C88.1154 47.7653 88.398 47.632 88.7074 47.536C89.0274 47.44 89.374 47.392 89.7474 47.392C90.302 47.392 90.7874 47.4933 91.2034 47.696C91.6194 47.8987 91.9394 48.2187 92.1634 48.656C92.398 49.0933 92.5154 49.664 92.5154 50.368V56H90.2914V50.72C90.2914 50.4533 90.2594 50.2293 90.1954 50.048C90.1314 49.856 90.0354 49.7013 89.9074 49.584C89.79 49.456 89.6407 49.3653 89.4594 49.312C89.278 49.2587 89.0754 49.232 88.8514 49.232C88.5207 49.232 88.222 49.312 87.9554 49.472C87.6887 49.632 87.4807 49.8507 87.3314 50.128C87.182 50.4053 87.1074 50.7253 87.1074 51.088V56H84.8834ZM96.7324 56.192C96.455 56.192 96.1564 56.16 95.8364 56.096C95.527 56.032 95.2337 55.92 94.9564 55.76C94.679 55.5893 94.4497 55.3493 94.2684 55.04C94.0977 54.72 94.0124 54.3147 94.0124 53.824C94.0124 53.2373 94.1404 52.752 94.3964 52.368C94.6524 51.984 95.015 51.6853 95.4844 51.472C95.9644 51.248 96.535 51.0933 97.1964 51.008C97.8577 50.9227 98.5884 50.88 99.3884 50.88V50.256C99.3884 50.0107 99.3457 49.7973 99.2604 49.616C99.1857 49.4347 99.047 49.2907 98.8444 49.184C98.6524 49.0773 98.3804 49.024 98.0284 49.024C97.6764 49.024 97.3884 49.0667 97.1644 49.152C96.951 49.2373 96.7964 49.3493 96.7004 49.488C96.615 49.616 96.5724 49.76 96.5724 49.92V50.112H94.4124C94.4017 50.0587 94.3964 50.0107 94.3964 49.968C94.3964 49.9147 94.3964 49.8507 94.3964 49.776C94.3964 49.2853 94.5457 48.864 94.8444 48.512C95.143 48.1493 95.5644 47.872 96.1084 47.68C96.6524 47.488 97.287 47.392 98.0124 47.392C98.791 47.392 99.4417 47.4933 99.9644 47.696C100.498 47.8987 100.903 48.1973 101.18 48.592C101.468 48.9867 101.612 49.4827 101.612 50.08V53.904C101.612 54.096 101.666 54.24 101.772 54.336C101.89 54.4213 102.018 54.464 102.156 54.464H102.684V55.92C102.578 55.9733 102.412 56.0267 102.188 56.08C101.964 56.144 101.692 56.176 101.372 56.176C101.063 56.176 100.786 56.128 100.54 56.032C100.306 55.9467 100.108 55.824 99.9484 55.664C99.7884 55.4933 99.6764 55.2907 99.6124 55.056H99.5004C99.319 55.28 99.095 55.4773 98.8284 55.648C98.5724 55.8187 98.2684 55.952 97.9164 56.048C97.575 56.144 97.1804 56.192 96.7324 56.192ZM97.4844 54.512C97.783 54.512 98.0497 54.4693 98.2844 54.384C98.519 54.288 98.7164 54.1653 98.8764 54.016C99.0364 53.856 99.159 53.664 99.2444 53.44C99.3404 53.216 99.3884 52.976 99.3884 52.72V52.256C98.791 52.256 98.2577 52.2987 97.7884 52.384C97.319 52.4587 96.9457 52.592 96.6684 52.784C96.4017 52.976 96.2684 53.2427 96.2684 53.584C96.2684 53.776 96.3164 53.9413 96.4124 54.08C96.5084 54.2187 96.647 54.3253 96.8284 54.4C97.0097 54.4747 97.2284 54.512 97.4844 54.512ZM106.302 56.192C105.768 56.192 105.336 56.096 105.006 55.904C104.675 55.712 104.435 55.456 104.286 55.136C104.136 54.8053 104.062 54.4427 104.062 54.048V49.296H103.022V47.584H104.142L104.558 45.184H106.286V47.584H107.822V49.296H106.286V53.68C106.286 53.936 106.344 54.1333 106.462 54.272C106.579 54.4 106.771 54.464 107.038 54.464H107.822V55.936C107.694 55.9787 107.544 56.016 107.374 56.048C107.203 56.0907 107.022 56.1227 106.83 56.144C106.638 56.176 106.462 56.192 106.302 56.192ZM117.103 56.192C116.559 56.192 116.058 56.0853 115.599 55.872C115.151 55.648 114.788 55.312 114.511 54.864H114.399L114.223 56H112.399V44.432H114.623V48.512H114.719C114.89 48.2667 115.098 48.0587 115.343 47.888C115.588 47.7173 115.866 47.5947 116.175 47.52C116.484 47.4347 116.82 47.392 117.183 47.392C117.844 47.392 118.42 47.5467 118.911 47.856C119.412 48.1653 119.802 48.6453 120.079 49.296C120.356 49.936 120.495 50.7627 120.495 51.776C120.495 52.7893 120.356 53.6213 120.079 54.272C119.812 54.9227 119.423 55.408 118.911 55.728C118.41 56.0373 117.807 56.192 117.103 56.192ZM116.415 54.368C116.863 54.368 117.215 54.2827 117.471 54.112C117.738 53.9307 117.93 53.664 118.047 53.312C118.164 52.96 118.223 52.5173 118.223 51.984V51.616C118.223 51.0827 118.164 50.64 118.047 50.288C117.93 49.9253 117.738 49.6587 117.471 49.488C117.215 49.3067 116.863 49.216 116.415 49.216C116.095 49.216 115.823 49.2747 115.599 49.392C115.375 49.4987 115.188 49.6587 115.039 49.872C114.9 50.0747 114.794 50.3307 114.719 50.64C114.644 50.9493 114.607 51.2907 114.607 51.664V51.952C114.607 52.4533 114.671 52.8853 114.799 53.248C114.927 53.6107 115.124 53.888 115.391 54.08C115.658 54.272 115.999 54.368 116.415 54.368ZM126.005 56.192C125.088 56.192 124.309 56.0373 123.669 55.728C123.029 55.408 122.544 54.9227 122.213 54.272C121.883 53.6107 121.717 52.784 121.717 51.792C121.717 50.7787 121.883 49.952 122.213 49.312C122.544 48.6613 123.029 48.1813 123.669 47.872C124.309 47.552 125.088 47.392 126.005 47.392C126.944 47.392 127.728 47.552 128.357 47.872C128.997 48.1813 129.483 48.6613 129.813 49.312C130.144 49.952 130.309 50.7787 130.309 51.792C130.309 52.784 130.144 53.6107 129.813 54.272C129.483 54.9227 128.997 55.408 128.357 55.728C127.728 56.0373 126.944 56.192 126.005 56.192ZM126.005 54.464C126.496 54.464 126.885 54.3733 127.173 54.192C127.472 54.0107 127.691 53.7333 127.829 53.36C127.968 52.9867 128.037 52.528 128.037 51.984V51.6C128.037 51.056 127.968 50.5973 127.829 50.224C127.691 49.8507 127.472 49.5733 127.173 49.392C126.885 49.2 126.496 49.104 126.005 49.104C125.525 49.104 125.136 49.2 124.837 49.392C124.549 49.5733 124.336 49.8507 124.197 50.224C124.059 50.5973 123.989 51.056 123.989 51.6V51.984C123.989 52.528 124.059 52.9867 124.197 53.36C124.336 53.7333 124.549 54.0107 124.837 54.192C125.136 54.3733 125.525 54.464 126.005 54.464ZM135.818 56.192C134.901 56.192 134.122 56.0373 133.482 55.728C132.842 55.408 132.357 54.9227 132.026 54.272C131.695 53.6107 131.53 52.784 131.53 51.792C131.53 50.7787 131.695 49.952 132.026 49.312C132.357 48.6613 132.842 48.1813 133.482 47.872C134.122 47.552 134.901 47.392 135.818 47.392C136.757 47.392 137.541 47.552 138.17 47.872C138.81 48.1813 139.295 48.6613 139.626 49.312C139.957 49.952 140.122 50.7787 140.122 51.792C140.122 52.784 139.957 53.6107 139.626 54.272C139.295 54.9227 138.81 55.408 138.17 55.728C137.541 56.0373 136.757 56.192 135.818 56.192ZM135.818 54.464C136.309 54.464 136.698 54.3733 136.986 54.192C137.285 54.0107 137.503 53.7333 137.642 53.36C137.781 52.9867 137.85 52.528 137.85 51.984V51.6C137.85 51.056 137.781 50.5973 137.642 50.224C137.503 49.8507 137.285 49.5733 136.986 49.392C136.698 49.2 136.309 49.104 135.818 49.104C135.338 49.104 134.949 49.2 134.65 49.392C134.362 49.5733 134.149 49.8507 134.01 50.224C133.871 50.5973 133.802 51.056 133.802 51.6V51.984C133.802 52.528 133.871 52.9867 134.01 53.36C134.149 53.7333 134.362 54.0107 134.65 54.192C134.949 54.3733 135.338 54.464 135.818 54.464ZM141.758 56V44.416H143.982V51.088L146.926 47.584H149.534L146.654 50.88L149.678 56H147.134L145.198 52.448L143.982 53.632V56H141.758ZM150.883 46.352V44.432H153.107V46.352H150.883ZM150.883 56V47.584H153.107V56H150.883ZM155.149 56V47.584H156.989L157.165 48.736H157.277C157.469 48.4587 157.698 48.2187 157.965 48.016C158.242 47.8133 158.552 47.6587 158.893 47.552C159.234 47.4453 159.608 47.392 160.013 47.392C160.568 47.392 161.053 47.4933 161.469 47.696C161.885 47.8987 162.205 48.2187 162.429 48.656C162.664 49.0933 162.781 49.664 162.781 50.368V56H160.557V50.72C160.557 50.4533 160.525 50.2293 160.461 50.048C160.397 49.856 160.301 49.7013 160.173 49.584C160.056 49.456 159.906 49.3653 159.725 49.312C159.544 49.2587 159.341 49.232 159.117 49.232C158.786 49.232 158.488 49.312 158.221 49.472C157.954 49.632 157.746 49.8507 157.597 50.128C157.448 50.4053 157.373 50.7253 157.373 51.088V56H155.149ZM166.15 59.008C165.777 59.008 165.425 58.928 165.094 58.768C164.763 58.6187 164.497 58.3947 164.294 58.096C164.091 57.7973 163.99 57.44 163.99 57.024C163.99 56.5547 164.123 56.1813 164.39 55.904C164.667 55.616 164.977 55.4027 165.318 55.264C165.073 55.1253 164.87 54.944 164.71 54.72C164.561 54.496 164.486 54.2347 164.486 53.936C164.486 53.52 164.635 53.184 164.934 52.928C165.243 52.6613 165.595 52.4907 165.99 52.416C165.595 52.1707 165.286 51.8613 165.062 51.488C164.849 51.104 164.742 50.6773 164.742 50.208C164.742 49.6 164.891 49.088 165.19 48.672C165.499 48.256 165.937 47.9413 166.502 47.728C167.078 47.504 167.755 47.392 168.534 47.392C168.843 47.392 169.131 47.408 169.398 47.44C169.675 47.472 169.926 47.5253 170.15 47.6C170.545 47.3653 170.811 47.1093 170.95 46.832C171.099 46.544 171.179 46.3147 171.19 46.144H173.254C173.254 46.5387 173.179 46.88 173.03 47.168C172.891 47.456 172.689 47.696 172.422 47.888C172.155 48.0693 171.835 48.2027 171.462 48.288C171.739 48.5227 171.953 48.8053 172.102 49.136C172.251 49.4667 172.326 49.824 172.326 50.208C172.326 50.8053 172.182 51.3173 171.894 51.744C171.606 52.16 171.195 52.48 170.662 52.704C170.139 52.928 169.51 53.04 168.774 53.04H167.494C167.238 53.04 167.046 53.088 166.918 53.184C166.79 53.2693 166.726 53.3973 166.726 53.568C166.726 53.7067 166.779 53.8293 166.886 53.936C167.003 54.032 167.19 54.08 167.446 54.08H170.95C171.654 54.08 172.214 54.2987 172.63 54.736C173.057 55.1627 173.27 55.712 173.27 56.384C173.27 56.896 173.137 57.3493 172.87 57.744C172.603 58.1387 172.235 58.448 171.766 58.672C171.297 58.896 170.758 59.008 170.15 59.008H166.15ZM167.078 57.52H170.038C170.23 57.52 170.401 57.4827 170.55 57.408C170.699 57.344 170.817 57.248 170.902 57.12C170.987 57.0027 171.03 56.864 171.03 56.704C171.03 56.4267 170.945 56.2187 170.774 56.08C170.603 55.9413 170.39 55.872 170.134 55.872H167.078C166.822 55.872 166.609 55.9467 166.438 56.096C166.278 56.2453 166.198 56.4427 166.198 56.688C166.198 56.9333 166.278 57.1307 166.438 57.28C166.609 57.44 166.822 57.52 167.078 57.52ZM168.534 51.6C169.057 51.6 169.451 51.4827 169.718 51.248C169.995 51.0027 170.134 50.656 170.134 50.208C170.134 49.76 169.995 49.4187 169.718 49.184C169.451 48.9387 169.057 48.816 168.534 48.816C168.022 48.816 167.627 48.9387 167.35 49.184C167.083 49.4187 166.95 49.76 166.95 50.208C166.95 50.496 167.009 50.7467 167.126 50.96C167.243 51.1733 167.419 51.3333 167.654 51.44C167.889 51.5467 168.182 51.6 168.534 51.6ZM177.633 58.848V47.584H179.457L179.649 48.72H179.761C180.039 48.2613 180.401 47.9253 180.849 47.712C181.297 47.4987 181.793 47.392 182.337 47.392C183.041 47.392 183.644 47.5467 184.145 47.856C184.657 48.1653 185.047 48.6453 185.313 49.296C185.591 49.9467 185.729 50.784 185.729 51.808C185.729 52.8 185.591 53.6213 185.313 54.272C185.036 54.9227 184.647 55.408 184.145 55.728C183.655 56.0373 183.079 56.192 182.417 56.192C182.055 56.192 181.719 56.1493 181.409 56.064C181.1 55.9893 180.823 55.8667 180.577 55.696C180.332 55.5253 180.124 55.3173 179.953 55.072H179.857V58.848H177.633ZM181.649 54.368C182.097 54.368 182.449 54.2827 182.705 54.112C182.972 53.9307 183.164 53.664 183.281 53.312C183.399 52.9493 183.457 52.5067 183.457 51.984V51.616C183.457 51.0827 183.399 50.64 183.281 50.288C183.164 49.9253 182.972 49.6587 182.705 49.488C182.449 49.3067 182.097 49.216 181.649 49.216C181.233 49.216 180.892 49.312 180.625 49.504C180.359 49.696 180.161 49.9733 180.033 50.336C179.905 50.6987 179.841 51.136 179.841 51.648V51.92C179.841 52.2933 179.879 52.6347 179.953 52.944C180.028 53.2427 180.135 53.4987 180.273 53.712C180.423 53.9253 180.609 54.0907 180.833 54.208C181.057 54.3147 181.329 54.368 181.649 54.368ZM187.368 56V44.432H189.592V48.512H189.704C189.885 48.288 190.098 48.096 190.344 47.936C190.6 47.7653 190.882 47.632 191.192 47.536C191.512 47.44 191.858 47.392 192.232 47.392C192.786 47.392 193.272 47.4933 193.688 47.696C194.104 47.8987 194.424 48.2187 194.648 48.656C194.882 49.0933 195 49.664 195 50.368V56H192.776V50.72C192.776 50.4533 192.744 50.2293 192.68 50.048C192.616 49.856 192.52 49.7013 192.392 49.584C192.274 49.456 192.125 49.3653 191.944 49.312C191.762 49.2587 191.56 49.232 191.336 49.232C191.005 49.232 190.706 49.312 190.44 49.472C190.173 49.632 189.965 49.8507 189.816 50.128C189.666 50.4053 189.592 50.7253 189.592 51.088V56H187.368ZM199.217 56.192C198.939 56.192 198.641 56.16 198.321 56.096C198.011 56.032 197.718 55.92 197.441 55.76C197.163 55.5893 196.934 55.3493 196.753 55.04C196.582 54.72 196.497 54.3147 196.497 53.824C196.497 53.2373 196.625 52.752 196.881 52.368C197.137 51.984 197.499 51.6853 197.969 51.472C198.449 51.248 199.019 51.0933 199.681 51.008C200.342 50.9227 201.073 50.88 201.873 50.88V50.256C201.873 50.0107 201.83 49.7973 201.745 49.616C201.67 49.4347 201.531 49.2907 201.329 49.184C201.137 49.0773 200.865 49.024 200.513 49.024C200.161 49.024 199.873 49.0667 199.649 49.152C199.435 49.2373 199.281 49.3493 199.185 49.488C199.099 49.616 199.057 49.76 199.057 49.92V50.112H196.897C196.886 50.0587 196.881 50.0107 196.881 49.968C196.881 49.9147 196.881 49.8507 196.881 49.776C196.881 49.2853 197.03 48.864 197.329 48.512C197.627 48.1493 198.049 47.872 198.593 47.68C199.137 47.488 199.771 47.392 200.497 47.392C201.275 47.392 201.926 47.4933 202.449 47.696C202.982 47.8987 203.387 48.1973 203.665 48.592C203.953 48.9867 204.097 49.4827 204.097 50.08V53.904C204.097 54.096 204.15 54.24 204.257 54.336C204.374 54.4213 204.502 54.464 204.641 54.464H205.169V55.92C205.062 55.9733 204.897 56.0267 204.673 56.08C204.449 56.144 204.177 56.176 203.857 56.176C203.547 56.176 203.27 56.128 203.025 56.032C202.79 55.9467 202.593 55.824 202.433 55.664C202.273 55.4933 202.161 55.2907 202.097 55.056H201.985C201.803 55.28 201.579 55.4773 201.313 55.648C201.057 55.8187 200.753 55.952 200.401 56.048C200.059 56.144 199.665 56.192 199.217 56.192ZM199.969 54.512C200.267 54.512 200.534 54.4693 200.769 54.384C201.003 54.288 201.201 54.1653 201.361 54.016C201.521 53.856 201.643 53.664 201.729 53.44C201.825 53.216 201.873 52.976 201.873 52.72V52.256C201.275 52.256 200.742 52.2987 200.273 52.384C199.803 52.4587 199.43 52.592 199.153 52.784C198.886 52.976 198.753 53.2427 198.753 53.584C198.753 53.776 198.801 53.9413 198.897 54.08C198.993 54.2187 199.131 54.3253 199.313 54.4C199.494 54.4747 199.713 54.512 199.969 54.512ZM209.682 56.192C209.095 56.192 208.567 56.128 208.098 56C207.629 55.872 207.229 55.696 206.898 55.472C206.567 55.2373 206.311 54.96 206.13 54.64C205.959 54.32 205.874 53.9573 205.874 53.552C205.874 53.5093 205.874 53.4667 205.874 53.424C205.874 53.3813 205.879 53.3493 205.89 53.328H208.034C208.034 53.3493 208.034 53.3707 208.034 53.392C208.034 53.4133 208.034 53.4347 208.034 53.456C208.045 53.7227 208.13 53.9413 208.29 54.112C208.45 54.272 208.658 54.3893 208.914 54.464C209.181 54.5387 209.458 54.576 209.746 54.576C210.002 54.576 210.247 54.5547 210.482 54.512C210.727 54.4587 210.93 54.368 211.09 54.24C211.261 54.112 211.346 53.9467 211.346 53.744C211.346 53.488 211.239 53.2907 211.026 53.152C210.823 53.0133 210.551 52.9013 210.21 52.816C209.879 52.7307 209.517 52.6347 209.122 52.528C208.759 52.4427 208.397 52.3467 208.034 52.24C207.671 52.1227 207.341 51.9733 207.042 51.792C206.754 51.6107 206.519 51.376 206.338 51.088C206.157 50.7893 206.066 50.416 206.066 49.968C206.066 49.5307 206.162 49.152 206.354 48.832C206.546 48.5013 206.807 48.2293 207.138 48.016C207.479 47.8027 207.874 47.648 208.322 47.552C208.781 47.4453 209.271 47.392 209.794 47.392C210.285 47.392 210.743 47.4453 211.17 47.552C211.597 47.648 211.97 47.7973 212.29 48C212.61 48.192 212.861 48.4373 213.042 48.736C213.223 49.024 213.314 49.3493 213.314 49.712C213.314 49.7867 213.314 49.856 213.314 49.92C213.314 49.984 213.309 50.0267 213.298 50.048H211.17V49.92C211.17 49.728 211.111 49.568 210.994 49.44C210.877 49.3013 210.706 49.1947 210.482 49.12C210.269 49.0453 210.007 49.008 209.698 49.008C209.485 49.008 209.287 49.024 209.106 49.056C208.935 49.088 208.786 49.136 208.658 49.2C208.53 49.264 208.429 49.344 208.354 49.44C208.29 49.5253 208.258 49.632 208.258 49.76C208.258 49.9413 208.333 50.0907 208.482 50.208C208.642 50.3147 208.85 50.4053 209.106 50.48C209.362 50.5547 209.645 50.6347 209.954 50.72C210.338 50.8267 210.738 50.9333 211.154 51.04C211.581 51.136 211.975 51.2693 212.338 51.44C212.701 51.6107 212.994 51.856 213.218 52.176C213.442 52.4853 213.554 52.9067 213.554 53.44C213.554 53.952 213.453 54.384 213.25 54.736C213.058 55.088 212.786 55.3707 212.434 55.584C212.082 55.7973 211.671 55.952 211.202 56.048C210.733 56.144 210.226 56.192 209.682 56.192ZM218.989 56.192C218.061 56.192 217.282 56.0373 216.653 55.728C216.023 55.408 215.549 54.9227 215.229 54.272C214.909 53.6213 214.749 52.7947 214.749 51.792C214.749 50.7787 214.909 49.952 215.229 49.312C215.549 48.6613 216.018 48.1813 216.637 47.872C217.266 47.552 218.034 47.392 218.941 47.392C219.794 47.392 220.514 47.5467 221.101 47.856C221.687 48.1547 222.13 48.624 222.429 49.264C222.727 49.8933 222.877 50.7093 222.877 51.712V52.288H217.005C217.026 52.7787 217.101 53.1947 217.229 53.536C217.367 53.8773 217.575 54.1333 217.853 54.304C218.141 54.464 218.519 54.544 218.989 54.544C219.245 54.544 219.474 54.512 219.677 54.448C219.89 54.384 220.071 54.288 220.221 54.16C220.37 54.032 220.487 53.872 220.573 53.68C220.658 53.488 220.701 53.2693 220.701 53.024H222.877C222.877 53.5573 222.781 54.0213 222.589 54.416C222.397 54.8107 222.13 55.1413 221.789 55.408C221.447 55.664 221.037 55.8613 220.557 56C220.087 56.128 219.565 56.192 218.989 56.192ZM217.037 50.88H220.589C220.589 50.56 220.546 50.2827 220.461 50.048C220.386 49.8133 220.279 49.6213 220.141 49.472C220.002 49.3227 219.831 49.216 219.629 49.152C219.437 49.0773 219.218 49.04 218.973 49.04C218.567 49.04 218.226 49.1093 217.949 49.248C217.682 49.376 217.474 49.5787 217.325 49.856C217.186 50.1227 217.09 50.464 217.037 50.88ZM229.297 56L226.657 47.584H228.993L230.049 51.712C230.102 51.9253 230.15 52.1547 230.193 52.4C230.246 52.6453 230.294 52.864 230.337 53.056C230.38 53.248 230.412 53.3867 230.433 53.472H230.545C230.588 53.2587 230.63 53.04 230.673 52.816C230.726 52.5813 230.774 52.3627 230.817 52.16C230.87 51.9467 230.908 51.7867 230.929 51.68L231.937 47.584H234.257L235.297 51.696C235.34 51.8453 235.382 52.032 235.425 52.256C235.468 52.4693 235.516 52.688 235.569 52.912C235.622 53.1253 235.665 53.312 235.697 53.472H235.793C235.814 53.3227 235.846 53.1467 235.889 52.944C235.942 52.7413 235.99 52.5333 236.033 52.32C236.086 52.1067 236.134 51.9147 236.177 51.744L237.217 47.584H239.361L236.737 56H234.449L233.521 52.24C233.478 52.0373 233.425 51.8133 233.361 51.568C233.297 51.312 233.238 51.0613 233.185 50.816C233.142 50.5707 233.105 50.3573 233.073 50.176H232.977C232.977 50.272 232.956 50.4213 232.913 50.624C232.87 50.816 232.817 51.0507 232.753 51.328C232.7 51.5947 232.63 51.8987 232.545 52.24L231.585 56H229.297ZM242.561 56.192C242.283 56.192 241.985 56.16 241.664 56.096C241.355 56.032 241.062 55.92 240.785 55.76C240.507 55.5893 240.278 55.3493 240.097 55.04C239.926 54.72 239.84 54.3147 239.84 53.824C239.84 53.2373 239.969 52.752 240.225 52.368C240.481 51.984 240.843 51.6853 241.312 51.472C241.793 51.248 242.363 51.0933 243.025 51.008C243.686 50.9227 244.417 50.88 245.217 50.88V50.256C245.217 50.0107 245.174 49.7973 245.089 49.616C245.014 49.4347 244.875 49.2907 244.673 49.184C244.481 49.0773 244.209 49.024 243.857 49.024C243.505 49.024 243.217 49.0667 242.993 49.152C242.779 49.2373 242.625 49.3493 242.529 49.488C242.443 49.616 242.401 49.76 242.401 49.92V50.112H240.241C240.23 50.0587 240.225 50.0107 240.225 49.968C240.225 49.9147 240.225 49.8507 240.225 49.776C240.225 49.2853 240.374 48.864 240.673 48.512C240.971 48.1493 241.393 47.872 241.937 47.68C242.481 47.488 243.115 47.392 243.841 47.392C244.619 47.392 245.27 47.4933 245.793 47.696C246.326 47.8987 246.731 48.1973 247.009 48.592C247.297 48.9867 247.441 49.4827 247.441 50.08V53.904C247.441 54.096 247.494 54.24 247.601 54.336C247.718 54.4213 247.846 54.464 247.985 54.464H248.513V55.92C248.406 55.9733 248.241 56.0267 248.017 56.08C247.793 56.144 247.521 56.176 247.201 56.176C246.891 56.176 246.614 56.128 246.369 56.032C246.134 55.9467 245.937 55.824 245.777 55.664C245.617 55.4933 245.505 55.2907 245.441 55.056H245.329C245.147 55.28 244.923 55.4773 244.657 55.648C244.401 55.8187 244.097 55.952 243.745 56.048C243.403 56.144 243.009 56.192 242.561 56.192ZM243.312 54.512C243.611 54.512 243.878 54.4693 244.113 54.384C244.347 54.288 244.545 54.1653 244.705 54.016C244.865 53.856 244.987 53.664 245.073 53.44C245.169 53.216 245.217 52.976 245.217 52.72V52.256C244.619 52.256 244.086 52.2987 243.617 52.384C243.147 52.4587 242.774 52.592 242.497 52.784C242.23 52.976 242.097 53.2427 242.097 53.584C242.097 53.776 242.145 53.9413 242.241 54.08C242.337 54.2187 242.475 54.3253 242.657 54.4C242.838 54.4747 243.057 54.512 243.312 54.512ZM253.026 56.192C252.439 56.192 251.911 56.128 251.442 56C250.972 55.872 250.572 55.696 250.242 55.472C249.911 55.2373 249.655 54.96 249.474 54.64C249.303 54.32 249.218 53.9573 249.218 53.552C249.218 53.5093 249.218 53.4667 249.218 53.424C249.218 53.3813 249.223 53.3493 249.234 53.328H251.378C251.378 53.3493 251.378 53.3707 251.378 53.392C251.378 53.4133 251.378 53.4347 251.378 53.456C251.388 53.7227 251.474 53.9413 251.634 54.112C251.794 54.272 252.002 54.3893 252.258 54.464C252.524 54.5387 252.802 54.576 253.09 54.576C253.346 54.576 253.591 54.5547 253.826 54.512C254.071 54.4587 254.274 54.368 254.434 54.24C254.604 54.112 254.69 53.9467 254.69 53.744C254.69 53.488 254.583 53.2907 254.37 53.152C254.167 53.0133 253.895 52.9013 253.554 52.816C253.223 52.7307 252.86 52.6347 252.466 52.528C252.103 52.4427 251.74 52.3467 251.378 52.24C251.015 52.1227 250.684 51.9733 250.386 51.792C250.098 51.6107 249.863 51.376 249.682 51.088C249.5 50.7893 249.41 50.416 249.41 49.968C249.41 49.5307 249.506 49.152 249.698 48.832C249.89 48.5013 250.151 48.2293 250.482 48.016C250.823 47.8027 251.218 47.648 251.666 47.552C252.124 47.4453 252.615 47.392 253.138 47.392C253.628 47.392 254.087 47.4453 254.514 47.552C254.94 47.648 255.314 47.7973 255.634 48C255.954 48.192 256.204 48.4373 256.386 48.736C256.567 49.024 256.658 49.3493 256.658 49.712C256.658 49.7867 256.658 49.856 256.658 49.92C256.658 49.984 256.652 50.0267 256.642 50.048H254.514V49.92C254.514 49.728 254.455 49.568 254.338 49.44C254.22 49.3013 254.05 49.1947 253.826 49.12C253.612 49.0453 253.351 49.008 253.042 49.008C252.828 49.008 252.631 49.024 252.45 49.056C252.279 49.088 252.13 49.136 252.002 49.2C251.874 49.264 251.772 49.344 251.698 49.44C251.634 49.5253 251.602 49.632 251.602 49.76C251.602 49.9413 251.676 50.0907 251.826 50.208C251.986 50.3147 252.194 50.4053 252.45 50.48C252.706 50.5547 252.988 50.6347 253.298 50.72C253.682 50.8267 254.082 50.9333 254.498 51.04C254.924 51.136 255.319 51.2693 255.682 51.44C256.044 51.6107 256.338 51.856 256.562 52.176C256.786 52.4853 256.898 52.9067 256.898 53.44C256.898 53.952 256.796 54.384 256.594 54.736C256.402 55.088 256.13 55.3707 255.778 55.584C255.426 55.7973 255.015 55.952 254.546 56.048C254.076 56.144 253.57 56.192 253.026 56.192ZM63.5794 78.192C62.6834 78.192 61.9314 78.0373 61.3234 77.728C60.7154 77.408 60.2514 76.9227 59.9314 76.272C59.622 75.6107 59.4674 74.784 59.4674 73.792C59.4674 72.7787 59.622 71.952 59.9314 71.312C60.2514 70.6613 60.7154 70.176 61.3234 69.856C61.942 69.536 62.694 69.376 63.5794 69.376C64.1554 69.376 64.6727 69.4453 65.1314 69.584C65.6007 69.7227 66.006 69.936 66.3474 70.224C66.6887 70.512 66.9447 70.8693 67.1154 71.296C67.2967 71.712 67.3874 72.208 67.3874 72.784H65.1634C65.1634 72.4 65.1047 72.0853 64.9874 71.84C64.87 71.5947 64.6887 71.408 64.4434 71.28C64.2087 71.152 63.91 71.088 63.5474 71.088C63.1207 71.088 62.774 71.184 62.5074 71.376C62.2407 71.568 62.0434 71.8507 61.9154 72.224C61.7874 72.5973 61.7234 73.0613 61.7234 73.616V73.984C61.7234 74.528 61.7874 74.9867 61.9154 75.36C62.054 75.7333 62.262 76.016 62.5394 76.208C62.8167 76.3893 63.1794 76.48 63.6274 76.48C63.99 76.48 64.2887 76.416 64.5234 76.288C64.7687 76.16 64.9554 75.968 65.0834 75.712C65.2114 75.456 65.2754 75.1467 65.2754 74.784H67.3874C67.3874 75.328 67.2967 75.8133 67.1154 76.24C66.9447 76.6667 66.6887 77.024 66.3474 77.312C66.0167 77.6 65.6167 77.8187 65.1474 77.968C64.678 78.1173 64.1554 78.192 63.5794 78.192ZM72.9273 78.192C72.0099 78.192 71.2313 78.0373 70.5913 77.728C69.9513 77.408 69.4659 76.9227 69.1353 76.272C68.8046 75.6107 68.6393 74.784 68.6393 73.792C68.6393 72.7787 68.8046 71.952 69.1353 71.312C69.4659 70.6613 69.9513 70.1813 70.5913 69.872C71.2313 69.552 72.0099 69.392 72.9273 69.392C73.8659 69.392 74.6499 69.552 75.2793 69.872C75.9193 70.1813 76.4046 70.6613 76.7353 71.312C77.0659 71.952 77.2313 72.7787 77.2313 73.792C77.2313 74.784 77.0659 75.6107 76.7353 76.272C76.4046 76.9227 75.9193 77.408 75.2793 77.728C74.6499 78.0373 73.8659 78.192 72.9273 78.192ZM72.9273 76.464C73.4179 76.464 73.8073 76.3733 74.0953 76.192C74.3939 76.0107 74.6126 75.7333 74.7513 75.36C74.8899 74.9867 74.9593 74.528 74.9593 73.984V73.6C74.9593 73.056 74.8899 72.5973 74.7513 72.224C74.6126 71.8507 74.3939 71.5733 74.0953 71.392C73.8073 71.2 73.4179 71.104 72.9273 71.104C72.4473 71.104 72.0579 71.2 71.7593 71.392C71.4713 71.5733 71.2579 71.8507 71.1193 72.224C70.9806 72.5973 70.9113 73.056 70.9113 73.6V73.984C70.9113 74.528 70.9806 74.9867 71.1193 75.36C71.2579 75.7333 71.4713 76.0107 71.7593 76.192C72.0579 76.3733 72.4473 76.464 72.9273 76.464ZM78.8678 78V69.584H80.7078L80.8838 70.736H80.9958C81.1771 70.4587 81.3904 70.2187 81.6358 70.016C81.8918 69.8133 82.1744 69.6587 82.4838 69.552C82.8038 69.4453 83.1451 69.392 83.5078 69.392C84.0411 69.392 84.4998 69.4987 84.8838 69.712C85.2784 69.9253 85.5824 70.2667 85.7958 70.736H85.9078C86.0891 70.4587 86.3078 70.2187 86.5638 70.016C86.8198 69.8133 87.1131 69.6587 87.4438 69.552C87.7744 69.4453 88.1264 69.392 88.4998 69.392C89.0331 69.392 89.4918 69.488 89.8758 69.68C90.2704 69.872 90.5798 70.1867 90.8038 70.624C91.0278 71.0507 91.1398 71.6053 91.1398 72.288V78H88.9158V72.688C88.9158 72.4213 88.8838 72.1973 88.8198 72.016C88.7664 71.824 88.6864 71.6747 88.5798 71.568C88.4731 71.4507 88.3398 71.3653 88.1798 71.312C88.0198 71.2587 87.8491 71.232 87.6678 71.232C87.3691 71.232 87.1024 71.312 86.8678 71.472C86.6331 71.632 86.4464 71.8507 86.3078 72.128C86.1798 72.4053 86.1158 72.7253 86.1158 73.088V78H83.8918V72.688C83.8918 72.4213 83.8598 72.1973 83.7958 72.016C83.7424 71.824 83.6624 71.6747 83.5558 71.568C83.4491 71.4507 83.3158 71.3653 83.1558 71.312C83.0064 71.2587 82.8358 71.232 82.6438 71.232C82.3558 71.232 82.0891 71.312 81.8438 71.472C81.6091 71.632 81.4224 71.8507 81.2838 72.128C81.1558 72.4053 81.0918 72.7253 81.0918 73.088V78H78.8678ZM93.1178 78V69.584H94.9578L95.1338 70.736H95.2458C95.4271 70.4587 95.6404 70.2187 95.8858 70.016C96.1418 69.8133 96.4244 69.6587 96.7338 69.552C97.0538 69.4453 97.3951 69.392 97.7578 69.392C98.2911 69.392 98.7498 69.4987 99.1338 69.712C99.5284 69.9253 99.8324 70.2667 100.046 70.736H100.158C100.339 70.4587 100.558 70.2187 100.814 70.016C101.07 69.8133 101.363 69.6587 101.694 69.552C102.024 69.4453 102.376 69.392 102.75 69.392C103.283 69.392 103.742 69.488 104.126 69.68C104.52 69.872 104.83 70.1867 105.054 70.624C105.278 71.0507 105.39 71.6053 105.39 72.288V78H103.166V72.688C103.166 72.4213 103.134 72.1973 103.07 72.016C103.016 71.824 102.936 71.6747 102.83 71.568C102.723 71.4507 102.59 71.3653 102.43 71.312C102.27 71.2587 102.099 71.232 101.918 71.232C101.619 71.232 101.352 71.312 101.118 71.472C100.883 71.632 100.696 71.8507 100.558 72.128C100.43 72.4053 100.366 72.7253 100.366 73.088V78H98.1418V72.688C98.1418 72.4213 98.1098 72.1973 98.0458 72.016C97.9924 71.824 97.9124 71.6747 97.8058 71.568C97.6991 71.4507 97.5658 71.3653 97.4058 71.312C97.2564 71.2587 97.0858 71.232 96.8938 71.232C96.6058 71.232 96.3391 71.312 96.0938 71.472C95.8591 71.632 95.6724 71.8507 95.5338 72.128C95.4058 72.4053 95.3418 72.7253 95.3418 73.088V78H93.1178ZM110.088 78.192C109.234 78.192 108.557 77.9573 108.056 77.488C107.554 77.0187 107.304 76.2613 107.304 75.216V69.584H109.528V74.848C109.528 75.1253 109.56 75.36 109.624 75.552C109.688 75.7333 109.778 75.8827 109.896 76C110.024 76.1173 110.178 76.2027 110.36 76.256C110.541 76.3093 110.744 76.336 110.968 76.336C111.298 76.336 111.597 76.256 111.864 76.096C112.13 75.936 112.338 75.7173 112.488 75.44C112.637 75.152 112.712 74.832 112.712 74.48V69.584H114.936V78H113.112L112.952 76.848H112.84C112.637 77.1147 112.397 77.3493 112.12 77.552C111.853 77.7547 111.549 77.9093 111.208 78.016C110.866 78.1333 110.493 78.192 110.088 78.192ZM116.977 78V69.584H118.817L118.993 70.736H119.105C119.297 70.4587 119.526 70.2187 119.793 70.016C120.07 69.8133 120.38 69.6587 120.721 69.552C121.062 69.4453 121.436 69.392 121.841 69.392C122.396 69.392 122.881 69.4933 123.297 69.696C123.713 69.8987 124.033 70.2187 124.257 70.656C124.492 71.0933 124.609 71.664 124.609 72.368V78H122.385V72.72C122.385 72.4533 122.353 72.2293 122.289 72.048C122.225 71.856 122.129 71.7013 122.001 71.584C121.884 71.456 121.734 71.3653 121.553 71.312C121.372 71.2587 121.169 71.232 120.945 71.232C120.614 71.232 120.316 71.312 120.049 71.472C119.782 71.632 119.574 71.8507 119.425 72.128C119.276 72.4053 119.201 72.7253 119.201 73.088V78H116.977ZM126.602 68.352V66.432H128.826V68.352H126.602ZM126.602 78V69.584H128.826V78H126.602ZM134.564 78.192C133.668 78.192 132.916 78.0373 132.308 77.728C131.7 77.408 131.236 76.9227 130.916 76.272C130.606 75.6107 130.452 74.784 130.452 73.792C130.452 72.7787 130.606 71.952 130.916 71.312C131.236 70.6613 131.7 70.176 132.308 69.856C132.926 69.536 133.678 69.376 134.564 69.376C135.14 69.376 135.657 69.4453 136.116 69.584C136.585 69.7227 136.99 69.936 137.332 70.224C137.673 70.512 137.929 70.8693 138.1 71.296C138.281 71.712 138.372 72.208 138.372 72.784H136.148C136.148 72.4 136.089 72.0853 135.972 71.84C135.854 71.5947 135.673 71.408 135.428 71.28C135.193 71.152 134.894 71.088 134.532 71.088C134.105 71.088 133.758 71.184 133.492 71.376C133.225 71.568 133.028 71.8507 132.9 72.224C132.772 72.5973 132.708 73.0613 132.708 73.616V73.984C132.708 74.528 132.772 74.9867 132.9 75.36C133.038 75.7333 133.246 76.016 133.524 76.208C133.801 76.3893 134.164 76.48 134.612 76.48C134.974 76.48 135.273 76.416 135.508 76.288C135.753 76.16 135.94 75.968 136.068 75.712C136.196 75.456 136.26 75.1467 136.26 74.784H138.372C138.372 75.328 138.281 75.8133 138.1 76.24C137.929 76.6667 137.673 77.024 137.332 77.312C137.001 77.6 136.601 77.8187 136.132 77.968C135.662 78.1173 135.14 78.192 134.564 78.192ZM142.264 78.192C141.986 78.192 141.688 78.16 141.368 78.096C141.058 78.032 140.765 77.92 140.488 77.76C140.21 77.5893 139.981 77.3493 139.8 77.04C139.629 76.72 139.544 76.3147 139.544 75.824C139.544 75.2373 139.672 74.752 139.928 74.368C140.184 73.984 140.546 73.6853 141.016 73.472C141.496 73.248 142.066 73.0933 142.728 73.008C143.389 72.9227 144.12 72.88 144.92 72.88V72.256C144.92 72.0107 144.877 71.7973 144.792 71.616C144.717 71.4347 144.578 71.2907 144.376 71.184C144.184 71.0773 143.912 71.024 143.56 71.024C143.208 71.024 142.92 71.0667 142.696 71.152C142.482 71.2373 142.328 71.3493 142.232 71.488C142.146 71.616 142.104 71.76 142.104 71.92V72.112H139.944C139.933 72.0587 139.928 72.0107 139.928 71.968C139.928 71.9147 139.928 71.8507 139.928 71.776C139.928 71.2853 140.077 70.864 140.376 70.512C140.674 70.1493 141.096 69.872 141.64 69.68C142.184 69.488 142.818 69.392 143.544 69.392C144.322 69.392 144.973 69.4933 145.496 69.696C146.029 69.8987 146.434 70.1973 146.712 70.592C147 70.9867 147.144 71.4827 147.144 72.08V75.904C147.144 76.096 147.197 76.24 147.304 76.336C147.421 76.4213 147.549 76.464 147.688 76.464H148.216V77.92C148.109 77.9733 147.944 78.0267 147.72 78.08C147.496 78.144 147.224 78.176 146.904 78.176C146.594 78.176 146.317 78.128 146.072 78.032C145.837 77.9467 145.64 77.824 145.48 77.664C145.32 77.4933 145.208 77.2907 145.144 77.056H145.032C144.85 77.28 144.626 77.4773 144.36 77.648C144.104 77.8187 143.8 77.952 143.448 78.048C143.106 78.144 142.712 78.192 142.264 78.192ZM143.016 76.512C143.314 76.512 143.581 76.4693 143.816 76.384C144.05 76.288 144.248 76.1653 144.408 76.016C144.568 75.856 144.69 75.664 144.776 75.44C144.872 75.216 144.92 74.976 144.92 74.72V74.256C144.322 74.256 143.789 74.2987 143.32 74.384C142.85 74.4587 142.477 74.592 142.2 74.784C141.933 74.976 141.8 75.2427 141.8 75.584C141.8 75.776 141.848 75.9413 141.944 76.08C142.04 76.2187 142.178 76.3253 142.36 76.4C142.541 76.4747 142.76 76.512 143.016 76.512ZM151.833 78.192C151.3 78.192 150.868 78.096 150.537 77.904C150.206 77.712 149.966 77.456 149.817 77.136C149.668 76.8053 149.593 76.4427 149.593 76.048V71.296H148.553V69.584H149.673L150.089 67.184H151.817V69.584H153.353V71.296H151.817V75.68C151.817 75.936 151.876 76.1333 151.993 76.272C152.11 76.4 152.302 76.464 152.569 76.464H153.353V77.936C153.225 77.9787 153.076 78.016 152.905 78.048C152.734 78.0907 152.553 78.1227 152.361 78.144C152.169 78.176 151.993 78.192 151.833 78.192ZM154.79 68.352V66.432H157.014V68.352H154.79ZM154.79 78V69.584H157.014V78H154.79ZM162.927 78.192C162.01 78.192 161.231 78.0373 160.591 77.728C159.951 77.408 159.466 76.9227 159.135 76.272C158.805 75.6107 158.639 74.784 158.639 73.792C158.639 72.7787 158.805 71.952 159.135 71.312C159.466 70.6613 159.951 70.1813 160.591 69.872C161.231 69.552 162.01 69.392 162.927 69.392C163.866 69.392 164.65 69.552 165.279 69.872C165.919 70.1813 166.405 70.6613 166.735 71.312C167.066 71.952 167.231 72.7787 167.231 73.792C167.231 74.784 167.066 75.6107 166.735 76.272C166.405 76.9227 165.919 77.408 165.279 77.728C164.65 78.0373 163.866 78.192 162.927 78.192ZM162.927 76.464C163.418 76.464 163.807 76.3733 164.095 76.192C164.394 76.0107 164.613 75.7333 164.751 75.36C164.89 74.9867 164.959 74.528 164.959 73.984V73.6C164.959 73.056 164.89 72.5973 164.751 72.224C164.613 71.8507 164.394 71.5733 164.095 71.392C163.807 71.2 163.418 71.104 162.927 71.104C162.447 71.104 162.058 71.2 161.759 71.392C161.471 71.5733 161.258 71.8507 161.119 72.224C160.981 72.5973 160.911 73.056 160.911 73.6V73.984C160.911 74.528 160.981 74.9867 161.119 75.36C161.258 75.7333 161.471 76.0107 161.759 76.192C162.058 76.3733 162.447 76.464 162.927 76.464ZM168.868 78V69.584H170.708L170.884 70.736H170.996C171.188 70.4587 171.417 70.2187 171.684 70.016C171.961 69.8133 172.27 69.6587 172.612 69.552C172.953 69.4453 173.326 69.392 173.732 69.392C174.286 69.392 174.772 69.4933 175.188 69.696C175.604 69.8987 175.924 70.2187 176.148 70.656C176.382 71.0933 176.5 71.664 176.5 72.368V78H174.276V72.72C174.276 72.4533 174.244 72.2293 174.18 72.048C174.116 71.856 174.02 71.7013 173.892 71.584C173.774 71.456 173.625 71.3653 173.444 71.312C173.262 71.2587 173.06 71.232 172.836 71.232C172.505 71.232 172.206 71.312 171.94 71.472C171.673 71.632 171.465 71.8507 171.316 72.128C171.166 72.4053 171.092 72.7253 171.092 73.088V78H168.868ZM181.633 68.352V66.432H183.857V68.352H181.633ZM181.633 78V69.584H183.857V78H181.633ZM185.899 78V69.584H187.739L187.915 70.736H188.027C188.219 70.4587 188.448 70.2187 188.715 70.016C188.992 69.8133 189.302 69.6587 189.643 69.552C189.984 69.4453 190.358 69.392 190.763 69.392C191.318 69.392 191.803 69.4933 192.219 69.696C192.635 69.8987 192.955 70.2187 193.179 70.656C193.414 71.0933 193.531 71.664 193.531 72.368V78H191.307V72.72C191.307 72.4533 191.275 72.2293 191.211 72.048C191.147 71.856 191.051 71.7013 190.923 71.584C190.806 71.456 190.656 71.3653 190.475 71.312C190.294 71.2587 190.091 71.232 189.867 71.232C189.536 71.232 189.238 71.312 188.971 71.472C188.704 71.632 188.496 71.8507 188.347 72.128C188.198 72.4053 188.123 72.7253 188.123 73.088V78H185.899ZM195.524 68.352V66.432H197.748V68.352H195.524ZM195.524 78V69.584H197.748V78H195.524ZM202.302 78.192C201.768 78.192 201.336 78.096 201.006 77.904C200.675 77.712 200.435 77.456 200.286 77.136C200.136 76.8053 200.062 76.4427 200.062 76.048V71.296H199.022V69.584H200.142L200.558 67.184H202.286V69.584H203.822V71.296H202.286V75.68C202.286 75.936 202.344 76.1333 202.462 76.272C202.579 76.4 202.771 76.464 203.038 76.464H203.822V77.936C203.694 77.9787 203.544 78.016 203.374 78.048C203.203 78.0907 203.022 78.1227 202.83 78.144C202.638 78.176 202.462 78.192 202.302 78.192ZM205.258 68.352V66.432H207.482V68.352H205.258ZM205.258 78V69.584H207.482V78H205.258ZM211.748 78.192C211.471 78.192 211.172 78.16 210.852 78.096C210.543 78.032 210.249 77.92 209.972 77.76C209.695 77.5893 209.465 77.3493 209.284 77.04C209.113 76.72 209.028 76.3147 209.028 75.824C209.028 75.2373 209.156 74.752 209.412 74.368C209.668 73.984 210.031 73.6853 210.5 73.472C210.98 73.248 211.551 73.0933 212.212 73.008C212.873 72.9227 213.604 72.88 214.404 72.88V72.256C214.404 72.0107 214.361 71.7973 214.276 71.616C214.201 71.4347 214.063 71.2907 213.86 71.184C213.668 71.0773 213.396 71.024 213.044 71.024C212.692 71.024 212.404 71.0667 212.18 71.152C211.967 71.2373 211.812 71.3493 211.716 71.488C211.631 71.616 211.588 71.76 211.588 71.92V72.112H209.428C209.417 72.0587 209.412 72.0107 209.412 71.968C209.412 71.9147 209.412 71.8507 209.412 71.776C209.412 71.2853 209.561 70.864 209.86 70.512C210.159 70.1493 210.58 69.872 211.124 69.68C211.668 69.488 212.303 69.392 213.028 69.392C213.807 69.392 214.457 69.4933 214.98 69.696C215.513 69.8987 215.919 70.1973 216.196 70.592C216.484 70.9867 216.628 71.4827 216.628 72.08V75.904C216.628 76.096 216.681 76.24 216.788 76.336C216.905 76.4213 217.033 76.464 217.172 76.464H217.7V77.92C217.593 77.9733 217.428 78.0267 217.204 78.08C216.98 78.144 216.708 78.176 216.388 78.176C216.079 78.176 215.801 78.128 215.556 78.032C215.321 77.9467 215.124 77.824 214.964 77.664C214.804 77.4933 214.692 77.2907 214.628 77.056H214.516C214.335 77.28 214.111 77.4773 213.844 77.648C213.588 77.8187 213.284 77.952 212.932 78.048C212.591 78.144 212.196 78.192 211.748 78.192ZM212.5 76.512C212.799 76.512 213.065 76.4693 213.3 76.384C213.535 76.288 213.732 76.1653 213.892 76.016C214.052 75.856 214.175 75.664 214.26 75.44C214.356 75.216 214.404 74.976 214.404 74.72V74.256C213.807 74.256 213.273 74.2987 212.804 74.384C212.335 74.4587 211.961 74.592 211.684 74.784C211.417 74.976 211.284 75.2427 211.284 75.584C211.284 75.776 211.332 75.9413 211.428 76.08C211.524 76.2187 211.663 76.3253 211.844 76.4C212.025 76.4747 212.244 76.512 212.5 76.512ZM221.317 78.192C220.784 78.192 220.352 78.096 220.021 77.904C219.691 77.712 219.451 77.456 219.301 77.136C219.152 76.8053 219.077 76.4427 219.077 76.048V71.296H218.037V69.584H219.157L219.573 67.184H221.301V69.584H222.837V71.296H221.301V75.68C221.301 75.936 221.36 76.1333 221.477 76.272C221.595 76.4 221.787 76.464 222.053 76.464H222.837V77.936C222.709 77.9787 222.56 78.016 222.389 78.048C222.219 78.0907 222.037 78.1227 221.845 78.144C221.653 78.176 221.477 78.192 221.317 78.192ZM228.098 78.192C227.17 78.192 226.391 78.0373 225.762 77.728C225.133 77.408 224.658 76.9227 224.338 76.272C224.018 75.6213 223.858 74.7947 223.858 73.792C223.858 72.7787 224.018 71.952 224.338 71.312C224.658 70.6613 225.127 70.1813 225.746 69.872C226.375 69.552 227.143 69.392 228.05 69.392C228.903 69.392 229.623 69.5467 230.21 69.856C230.797 70.1547 231.239 70.624 231.538 71.264C231.837 71.8933 231.986 72.7093 231.986 73.712V74.288H226.114C226.135 74.7787 226.21 75.1947 226.338 75.536C226.477 75.8773 226.685 76.1333 226.962 76.304C227.25 76.464 227.629 76.544 228.098 76.544C228.354 76.544 228.583 76.512 228.786 76.448C228.999 76.384 229.181 76.288 229.33 76.16C229.479 76.032 229.597 75.872 229.682 75.68C229.767 75.488 229.81 75.2693 229.81 75.024H231.986C231.986 75.5573 231.89 76.0213 231.698 76.416C231.506 76.8107 231.239 77.1413 230.898 77.408C230.557 77.664 230.146 77.8613 229.666 78C229.197 78.128 228.674 78.192 228.098 78.192ZM226.146 72.88H229.698C229.698 72.56 229.655 72.2827 229.57 72.048C229.495 71.8133 229.389 71.6213 229.25 71.472C229.111 71.3227 228.941 71.216 228.738 71.152C228.546 71.0773 228.327 71.04 228.082 71.04C227.677 71.04 227.335 71.1093 227.058 71.248C226.791 71.376 226.583 71.5787 226.434 71.856C226.295 72.1227 226.199 72.464 226.146 72.88ZM236.594 78.192C235.9 78.192 235.298 78.0373 234.786 77.728C234.284 77.408 233.895 76.9227 233.618 76.272C233.34 75.6213 233.202 74.7893 233.202 73.776C233.202 72.7627 233.34 71.936 233.618 71.296C233.906 70.6453 234.295 70.1653 234.786 69.856C235.287 69.5467 235.863 69.392 236.514 69.392C236.876 69.392 237.212 69.4347 237.522 69.52C237.842 69.5947 238.119 69.7173 238.354 69.888C238.599 70.0587 238.807 70.2667 238.978 70.512H239.074V66.432H241.298V78H239.474L239.298 76.864H239.186C238.908 77.312 238.546 77.648 238.098 77.872C237.65 78.0853 237.148 78.192 236.594 78.192ZM237.298 76.368C237.714 76.368 238.05 76.272 238.306 76.08C238.572 75.888 238.77 75.6107 238.898 75.248C239.026 74.8853 239.09 74.4533 239.09 73.952V73.664C239.09 73.2907 239.052 72.9493 238.978 72.64C238.914 72.3307 238.807 72.0747 238.658 71.872C238.508 71.6587 238.322 71.4987 238.098 71.392C237.874 71.2747 237.607 71.216 237.298 71.216C236.85 71.216 236.492 71.3067 236.226 71.488C235.959 71.6587 235.767 71.9253 235.65 72.288C235.532 72.64 235.474 73.0827 235.474 73.616V73.984C235.474 74.5173 235.532 74.96 235.65 75.312C235.767 75.664 235.959 75.9307 236.226 76.112C236.492 76.2827 236.85 76.368 237.298 76.368ZM246.168 74.736V73.984C246.168 73.6 246.227 73.2747 246.344 73.008C246.472 72.7307 246.627 72.4907 246.808 72.288C247 72.0747 247.203 71.888 247.416 71.728C247.629 71.5573 247.827 71.392 248.008 71.232C248.2 71.0613 248.355 70.8747 248.472 70.672C248.6 70.4693 248.664 70.24 248.664 69.984C248.664 69.8667 248.648 69.7333 248.616 69.584C248.584 69.4347 248.515 69.2907 248.408 69.152C248.312 69.0027 248.163 68.8853 247.96 68.8C247.757 68.704 247.491 68.656 247.16 68.656C246.797 68.656 246.504 68.7093 246.28 68.816C246.067 68.9227 245.901 69.0613 245.784 69.232C245.677 69.392 245.603 69.5627 245.56 69.744C245.528 69.9253 245.512 70.096 245.512 70.256C245.512 70.3307 245.512 70.4053 245.512 70.48C245.512 70.544 245.517 70.6133 245.528 70.688H243.336C243.325 70.624 243.309 70.544 243.288 70.448C243.277 70.352 243.272 70.24 243.272 70.112C243.272 69.7387 243.325 69.3867 243.432 69.056C243.549 68.7253 243.715 68.4267 243.928 68.16C244.152 67.8827 244.429 67.648 244.76 67.456C245.091 67.2533 245.469 67.0987 245.896 66.992C246.323 66.8853 246.797 66.832 247.32 66.832C247.768 66.832 248.184 66.8747 248.568 66.96C248.963 67.0347 249.309 67.1573 249.608 67.328C249.917 67.488 250.179 67.6853 250.392 67.92C250.605 68.1547 250.771 68.4267 250.888 68.736C251.005 69.0453 251.064 69.3867 251.064 69.76C251.064 70.2293 250.995 70.6293 250.856 70.96C250.717 71.28 250.536 71.5627 250.312 71.808C250.099 72.0427 249.869 72.2507 249.624 72.432C249.379 72.6133 249.144 72.7947 248.92 72.976C248.707 73.1467 248.531 73.3333 248.392 73.536C248.253 73.7387 248.184 73.984 248.184 74.272V74.736H246.168ZM246.04 78V75.76H248.312V78H246.04Z" fill="#BABABA"/>
<path d="M155.5 108C174.955 108 194.094 112.914 211.143 122.287L155.5 223.5L155.5 108Z" fill="#FF9471"/>
<path d="M211.143 122.287C226.578 130.772 239.868 142.676 249.996 157.087C260.125 171.498 266.823 188.035 269.578 205.432C272.333 222.829 271.073 240.626 265.894 257.462C260.715 274.297 251.754 289.725 239.696 302.565L155.5 223.5L211.143 122.287Z" fill="#F84B11"/>
<path d="M239.696 302.565C226.588 316.523 210.217 327.004 192.053 333.063C173.89 339.123 154.505 340.572 135.642 337.28C116.78 333.988 99.0316 326.058 83.9946 314.204C68.9577 302.35 57.1038 286.943 49.4993 269.371C41.8949 251.798 38.7786 232.61 40.4308 213.534C42.0829 194.458 48.4518 176.092 58.9643 160.088C69.4767 144.084 83.803 130.945 100.654 121.853C117.505 112.76 136.352 108 155.5 108V223.5L239.696 302.565Z" fill="#C63200"/>
<circle cx="102.5" cy="369.5" r="6" fill="#C63200"/>
<path d="M118.232 374.144C117.728 374.144 117.28 374.072 116.888 373.928C116.504 373.784 116.176 373.556 115.904 373.244C115.632 372.932 115.428 372.52 115.292 372.008C115.156 371.488 115.088 370.856 115.088 370.112C115.088 369.272 115.156 368.564 115.292 367.988C115.428 367.412 115.624 366.952 115.88 366.608C116.144 366.256 116.468 366.004 116.852 365.852C117.236 365.7 117.68 365.624 118.184 365.624C118.792 365.624 119.296 365.736 119.696 365.96C120.104 366.184 120.404 366.492 120.596 366.884C120.796 367.268 120.896 367.716 120.896 368.228H119.276C119.276 367.948 119.236 367.712 119.156 367.52C119.076 367.32 118.952 367.168 118.784 367.064C118.616 366.96 118.404 366.908 118.148 366.908C117.772 366.908 117.484 367.008 117.284 367.208C117.092 367.4 116.96 367.684 116.888 368.06C116.824 368.436 116.788 368.892 116.78 369.428C116.86 369.348 116.98 369.252 117.14 369.14C117.308 369.028 117.516 368.932 117.764 368.852C118.012 368.764 118.28 368.72 118.568 368.72C119.136 368.72 119.612 368.836 119.996 369.068C120.388 369.292 120.68 369.604 120.872 370.004C121.064 370.404 121.16 370.868 121.16 371.396C121.16 371.964 121.032 372.456 120.776 372.872C120.528 373.28 120.184 373.596 119.744 373.82C119.312 374.036 118.808 374.144 118.232 374.144ZM118.172 372.848C118.468 372.848 118.712 372.788 118.904 372.668C119.096 372.54 119.24 372.368 119.336 372.152C119.432 371.928 119.48 371.68 119.48 371.408C119.48 371.12 119.432 370.868 119.336 370.652C119.24 370.436 119.096 370.268 118.904 370.148C118.712 370.02 118.468 369.956 118.172 369.956C117.884 369.956 117.64 370.02 117.44 370.148C117.248 370.268 117.104 370.436 117.008 370.652C116.912 370.868 116.864 371.12 116.864 371.408C116.864 371.688 116.912 371.94 117.008 372.164C117.104 372.38 117.248 372.548 117.44 372.668C117.64 372.788 117.884 372.848 118.172 372.848ZM125.248 374.144C124.576 374.144 124.012 374.04 123.556 373.832C123.1 373.624 122.756 373.336 122.524 372.968C122.292 372.6 122.176 372.176 122.176 371.696V371.492H123.796V371.72C123.796 372.072 123.912 372.348 124.144 372.548C124.384 372.748 124.728 372.848 125.176 372.848C125.608 372.848 125.944 372.748 126.184 372.548C126.424 372.348 126.544 372.04 126.544 371.624C126.544 371.312 126.48 371.072 126.352 370.904C126.224 370.736 126.056 370.616 125.848 370.544C125.648 370.472 125.428 370.436 125.188 370.436H124.456V369.176H125.176C125.4 369.176 125.6 369.136 125.776 369.056C125.96 368.968 126.104 368.84 126.208 368.672C126.32 368.504 126.376 368.288 126.376 368.024C126.376 367.776 126.324 367.572 126.22 367.412C126.124 367.244 125.984 367.12 125.8 367.04C125.624 366.96 125.42 366.92 125.188 366.92C124.956 366.92 124.744 366.96 124.552 367.04C124.368 367.12 124.224 367.24 124.12 367.4C124.016 367.56 123.964 367.76 123.964 368V368.18H122.368V367.88C122.368 367.432 122.484 367.04 122.716 366.704C122.956 366.36 123.292 366.096 123.724 365.912C124.156 365.72 124.656 365.624 125.224 365.624C125.792 365.624 126.288 365.712 126.712 365.888C127.144 366.064 127.476 366.324 127.708 366.668C127.948 367.004 128.068 367.404 128.068 367.868C128.068 368.18 128.008 368.456 127.888 368.696C127.776 368.936 127.624 369.14 127.432 369.308C127.24 369.468 127.02 369.604 126.772 369.716V369.764C127.204 369.892 127.556 370.128 127.828 370.472C128.108 370.808 128.248 371.244 128.248 371.78C128.24 372.26 128.112 372.676 127.864 373.028C127.624 373.38 127.28 373.656 126.832 373.856C126.384 374.048 125.856 374.144 125.248 374.144ZM131.161 374L136.969 365.768H138.157L132.337 374H131.161ZM131.773 369.944C131.349 369.944 130.985 369.872 130.681 369.728C130.385 369.584 130.157 369.356 129.997 369.044C129.845 368.732 129.769 368.312 129.769 367.784C129.769 367.256 129.845 366.836 129.997 366.524C130.157 366.204 130.385 365.976 130.681 365.84C130.985 365.696 131.349 365.624 131.773 365.624C132.205 365.624 132.569 365.696 132.865 365.84C133.161 365.976 133.385 366.204 133.537 366.524C133.697 366.836 133.777 367.256 133.777 367.784C133.777 368.312 133.697 368.736 133.537 369.056C133.385 369.368 133.161 369.596 132.865 369.74C132.569 369.876 132.205 369.944 131.773 369.944ZM131.773 369.044C132.093 369.044 132.305 368.94 132.409 368.732C132.513 368.516 132.565 368.232 132.565 367.88V367.676C132.565 367.444 132.541 367.244 132.493 367.076C132.453 366.9 132.373 366.764 132.253 366.668C132.141 366.564 131.981 366.512 131.773 366.512C131.469 366.512 131.261 366.62 131.149 366.836C131.045 367.052 130.993 367.332 130.993 367.676V367.88C130.993 368.232 131.045 368.516 131.149 368.732C131.261 368.94 131.469 369.044 131.773 369.044ZM137.521 374.144C137.097 374.144 136.733 374.072 136.429 373.928C136.133 373.784 135.905 373.556 135.745 373.244C135.593 372.932 135.517 372.512 135.517 371.984C135.517 371.456 135.593 371.036 135.745 370.724C135.905 370.404 136.133 370.176 136.429 370.04C136.733 369.896 137.097 369.824 137.521 369.824C137.953 369.824 138.317 369.896 138.613 370.04C138.917 370.176 139.145 370.404 139.297 370.724C139.449 371.036 139.525 371.456 139.525 371.984C139.525 372.512 139.449 372.936 139.297 373.256C139.145 373.568 138.917 373.796 138.613 373.94C138.317 374.076 137.953 374.144 137.521 374.144ZM137.521 373.256C137.833 373.256 138.041 373.148 138.145 372.932C138.249 372.716 138.301 372.432 138.301 372.08V371.876C138.301 371.644 138.277 371.444 138.229 371.276C138.189 371.1 138.113 370.964 138.001 370.868C137.897 370.764 137.737 370.712 137.521 370.712C137.217 370.712 137.009 370.82 136.897 371.036C136.793 371.252 136.741 371.532 136.741 371.876V372.08C136.741 372.432 136.793 372.716 136.897 372.932C137.009 373.148 137.217 373.256 137.521 373.256ZM143.758 376.076V367.688H144.598L144.706 368.588H144.79C145.006 368.236 145.282 367.976 145.618 367.808C145.954 367.632 146.334 367.544 146.758 367.544C147.286 367.544 147.734 367.66 148.102 367.892C148.47 368.124 148.754 368.488 148.954 368.984C149.154 369.472 149.254 370.108 149.254 370.892C149.254 371.628 149.15 372.24 148.942 372.728C148.742 373.208 148.458 373.564 148.09 373.796C147.722 374.028 147.294 374.144 146.806 374.144C146.534 374.144 146.278 374.112 146.038 374.048C145.798 373.984 145.582 373.884 145.39 373.748C145.198 373.604 145.03 373.424 144.886 373.208H144.814V376.076H143.758ZM146.47 373.22C146.862 373.22 147.182 373.144 147.43 372.992C147.678 372.832 147.862 372.588 147.982 372.26C148.102 371.924 148.162 371.496 148.162 370.976V370.724C148.162 370.172 148.098 369.732 147.97 369.404C147.842 369.068 147.654 368.828 147.406 368.684C147.166 368.54 146.866 368.468 146.506 368.468C146.114 368.468 145.79 368.556 145.534 368.732C145.286 368.9 145.102 369.156 144.982 369.5C144.87 369.844 144.814 370.264 144.814 370.76V370.94C144.814 371.38 144.854 371.748 144.934 372.044C145.022 372.332 145.142 372.564 145.294 372.74C145.454 372.916 145.634 373.04 145.834 373.112C146.034 373.184 146.246 373.22 146.47 373.22ZM150.566 374V367.688H151.418L151.514 368.732H151.598C151.662 368.532 151.75 368.344 151.862 368.168C151.974 367.984 152.126 367.836 152.318 367.724C152.51 367.604 152.746 367.544 153.026 367.544C153.146 367.544 153.254 367.556 153.35 367.58C153.454 367.596 153.53 367.616 153.578 367.64V368.612H153.182C152.91 368.612 152.674 368.66 152.474 368.756C152.282 368.844 152.122 368.972 151.994 369.14C151.866 369.308 151.77 369.508 151.706 369.74C151.65 369.972 151.622 370.22 151.622 370.484V374H150.566ZM156.953 374.144C156.329 374.144 155.801 374.028 155.369 373.796C154.945 373.556 154.621 373.192 154.397 372.704C154.181 372.216 154.073 371.596 154.073 370.844C154.073 370.084 154.181 369.464 154.397 368.984C154.621 368.496 154.949 368.136 155.381 367.904C155.813 367.664 156.353 367.544 157.001 367.544C157.593 367.544 158.089 367.66 158.489 367.892C158.889 368.116 159.189 368.456 159.389 368.912C159.597 369.36 159.701 369.924 159.701 370.604V371.108H155.165C155.181 371.612 155.253 372.028 155.381 372.356C155.517 372.676 155.717 372.912 155.981 373.064C156.245 373.208 156.577 373.28 156.977 373.28C157.249 373.28 157.485 373.248 157.685 373.184C157.893 373.112 158.065 373.012 158.201 372.884C158.345 372.756 158.453 372.604 158.525 372.428C158.597 372.252 158.637 372.06 158.645 371.852H159.677C159.669 372.188 159.605 372.5 159.485 372.788C159.365 373.068 159.189 373.308 158.957 373.508C158.725 373.708 158.441 373.864 158.105 373.976C157.769 374.088 157.385 374.144 156.953 374.144ZM155.189 370.316H158.609C158.609 369.964 158.569 369.668 158.489 369.428C158.409 369.188 158.293 368.992 158.141 368.84C157.997 368.688 157.825 368.58 157.625 368.516C157.433 368.444 157.213 368.408 156.965 368.408C156.597 368.408 156.285 368.476 156.029 368.612C155.773 368.748 155.577 368.956 155.441 369.236C155.305 369.516 155.221 369.876 155.189 370.316ZM165.916 374.144C165.308 374.144 164.796 374.028 164.38 373.796C163.972 373.556 163.66 373.192 163.444 372.704C163.236 372.208 163.132 371.588 163.132 370.844C163.132 370.1 163.236 369.484 163.444 368.996C163.66 368.508 163.976 368.144 164.392 367.904C164.816 367.664 165.336 367.544 165.952 367.544C166.384 367.544 166.756 367.6 167.068 367.712C167.388 367.824 167.652 367.988 167.86 368.204C168.068 368.42 168.22 368.68 168.316 368.984C168.42 369.288 168.472 369.636 168.472 370.028H167.404C167.404 369.66 167.352 369.36 167.248 369.128C167.152 368.888 166.996 368.712 166.78 368.6C166.564 368.48 166.28 368.42 165.928 368.42C165.576 368.42 165.272 368.5 165.016 368.66C164.76 368.812 164.564 369.056 164.428 369.392C164.292 369.728 164.224 370.172 164.224 370.724V370.976C164.224 371.496 164.288 371.928 164.416 372.272C164.552 372.616 164.748 372.868 165.004 373.028C165.26 373.188 165.572 373.268 165.94 373.268C166.3 373.268 166.588 373.204 166.804 373.076C167.028 372.948 167.188 372.764 167.284 372.524C167.388 372.284 167.44 371.996 167.44 371.66H168.472C168.472 372.012 168.42 372.34 168.316 372.644C168.22 372.948 168.068 373.212 167.86 373.436C167.652 373.66 167.388 373.836 167.068 373.964C166.748 374.084 166.364 374.144 165.916 374.144ZM169.738 374V365.324H170.794V368.48H170.878C171.038 368.264 171.218 368.088 171.418 367.952C171.618 367.816 171.838 367.716 172.078 367.652C172.326 367.58 172.594 367.544 172.882 367.544C173.282 367.544 173.63 367.612 173.926 367.748C174.23 367.884 174.466 368.104 174.634 368.408C174.81 368.712 174.898 369.124 174.898 369.644V374H173.842V369.788C173.842 369.524 173.806 369.308 173.734 369.14C173.67 368.972 173.578 368.84 173.458 368.744C173.346 368.648 173.206 368.58 173.038 368.54C172.878 368.5 172.698 368.48 172.498 368.48C172.202 368.48 171.922 368.552 171.658 368.696C171.394 368.832 171.182 369.036 171.022 369.308C170.87 369.572 170.794 369.9 170.794 370.292V374H169.738ZM179.02 374.144C178.396 374.144 177.868 374.028 177.436 373.796C177.012 373.556 176.688 373.192 176.464 372.704C176.248 372.216 176.14 371.596 176.14 370.844C176.14 370.084 176.248 369.464 176.464 368.984C176.688 368.496 177.016 368.136 177.448 367.904C177.88 367.664 178.42 367.544 179.068 367.544C179.66 367.544 180.156 367.66 180.556 367.892C180.956 368.116 181.256 368.456 181.456 368.912C181.664 369.36 181.768 369.924 181.768 370.604V371.108H177.232C177.248 371.612 177.32 372.028 177.448 372.356C177.584 372.676 177.784 372.912 178.048 373.064C178.312 373.208 178.644 373.28 179.044 373.28C179.316 373.28 179.552 373.248 179.752 373.184C179.96 373.112 180.132 373.012 180.268 372.884C180.412 372.756 180.52 372.604 180.592 372.428C180.664 372.252 180.704 372.06 180.712 371.852H181.744C181.736 372.188 181.672 372.5 181.552 372.788C181.432 373.068 181.256 373.308 181.024 373.508C180.792 373.708 180.508 373.864 180.172 373.976C179.836 374.088 179.452 374.144 179.02 374.144ZM177.256 370.316H180.676C180.676 369.964 180.636 369.668 180.556 369.428C180.476 369.188 180.36 368.992 180.208 368.84C180.064 368.688 179.892 368.58 179.692 368.516C179.5 368.444 179.28 368.408 179.032 368.408C178.664 368.408 178.352 368.476 178.096 368.612C177.84 368.748 177.644 368.956 177.508 369.236C177.372 369.516 177.288 369.876 177.256 370.316ZM185.474 374.144C184.866 374.144 184.354 374.028 183.938 373.796C183.53 373.556 183.218 373.192 183.002 372.704C182.794 372.208 182.69 371.588 182.69 370.844C182.69 370.1 182.794 369.484 183.002 368.996C183.218 368.508 183.534 368.144 183.95 367.904C184.374 367.664 184.894 367.544 185.51 367.544C185.942 367.544 186.314 367.6 186.626 367.712C186.946 367.824 187.21 367.988 187.418 368.204C187.626 368.42 187.778 368.68 187.874 368.984C187.978 369.288 188.03 369.636 188.03 370.028H186.962C186.962 369.66 186.91 369.36 186.806 369.128C186.71 368.888 186.554 368.712 186.338 368.6C186.122 368.48 185.838 368.42 185.486 368.42C185.134 368.42 184.83 368.5 184.574 368.66C184.318 368.812 184.122 369.056 183.986 369.392C183.85 369.728 183.782 370.172 183.782 370.724V370.976C183.782 371.496 183.846 371.928 183.974 372.272C184.11 372.616 184.306 372.868 184.562 373.028C184.818 373.188 185.13 373.268 185.498 373.268C185.858 373.268 186.146 373.204 186.362 373.076C186.586 372.948 186.746 372.764 186.842 372.524C186.946 372.284 186.998 371.996 186.998 371.66H188.03C188.03 372.012 187.978 372.34 187.874 372.644C187.778 372.948 187.626 373.212 187.418 373.436C187.21 373.66 186.946 373.836 186.626 373.964C186.306 374.084 185.922 374.144 185.474 374.144ZM189.297 374V365.324H190.353V370.748L193.029 367.688H194.277L192.117 370.136L194.397 374H193.185L191.433 370.916L190.353 372.008V374H189.297ZM194.515 371.288V370.22H197.551V371.288H194.515ZM198.859 366.5V365.324H199.915V366.5H198.859ZM198.859 374V367.688H199.915V374H198.859ZM201.555 374V367.688H202.407L202.503 368.636H202.587C202.755 368.38 202.943 368.172 203.151 368.012C203.367 367.852 203.603 367.736 203.859 367.664C204.123 367.584 204.403 367.544 204.699 367.544C205.099 367.544 205.447 367.612 205.743 367.748C206.047 367.884 206.283 368.104 206.451 368.408C206.627 368.712 206.715 369.124 206.715 369.644V374H205.659V369.788C205.659 369.524 205.623 369.308 205.551 369.14C205.487 368.972 205.395 368.84 205.275 368.744C205.163 368.648 205.023 368.58 204.855 368.54C204.695 368.5 204.515 368.48 204.315 368.48C204.019 368.48 203.739 368.552 203.475 368.696C203.211 368.84 202.999 369.048 202.839 369.32C202.687 369.592 202.611 369.916 202.611 370.292V374H201.555Z" fill="#232323"/>
<circle cx="102.5" cy="386.5" r="6" fill="#F84B11"/>
<path d="M115.112 391V390.568C115.112 390.208 115.176 389.88 115.304 389.584C115.432 389.288 115.608 389.016 115.832 388.768C116.056 388.52 116.304 388.284 116.576 388.06C116.848 387.836 117.128 387.62 117.416 387.412C117.744 387.164 118.052 386.92 118.34 386.68C118.636 386.44 118.876 386.184 119.06 385.912C119.244 385.632 119.336 385.324 119.336 384.988C119.336 384.828 119.296 384.668 119.216 384.508C119.136 384.348 119.008 384.216 118.832 384.112C118.664 384 118.436 383.944 118.148 383.944C117.852 383.944 117.608 383.996 117.416 384.1C117.224 384.196 117.076 384.336 116.972 384.52C116.876 384.696 116.828 384.916 116.828 385.18V385.612H115.22C115.212 385.572 115.204 385.516 115.196 385.444C115.188 385.372 115.184 385.284 115.184 385.18C115.184 384.596 115.316 384.116 115.58 383.74C115.852 383.364 116.216 383.084 116.672 382.9C117.136 382.716 117.66 382.624 118.244 382.624C118.772 382.624 119.212 382.7 119.564 382.852C119.924 382.996 120.212 383.192 120.428 383.44C120.644 383.68 120.796 383.944 120.884 384.232C120.98 384.512 121.028 384.784 121.028 385.048C121.028 385.424 120.96 385.768 120.824 386.08C120.688 386.392 120.504 386.684 120.272 386.956C120.04 387.228 119.764 387.492 119.444 387.748C119.124 387.996 118.784 388.244 118.424 388.492C118.24 388.62 118.064 388.744 117.896 388.864C117.736 388.984 117.596 389.1 117.476 389.212C117.364 389.316 117.276 389.42 117.212 389.524H121.088V391H115.112ZM125.116 391.144C124.508 391.144 124 391.032 123.592 390.808C123.192 390.584 122.892 390.276 122.692 389.884C122.492 389.492 122.392 389.04 122.392 388.528H124.024C124.024 388.808 124.064 389.048 124.144 389.248C124.224 389.448 124.348 389.6 124.516 389.704C124.684 389.8 124.896 389.848 125.152 389.848C125.528 389.848 125.812 389.752 126.004 389.56C126.196 389.36 126.324 389.072 126.388 388.696C126.46 388.312 126.5 387.856 126.508 387.328C126.436 387.408 126.316 387.504 126.148 387.616C125.988 387.728 125.784 387.828 125.536 387.916C125.296 387.996 125.028 388.036 124.732 388.036C124.164 388.036 123.688 387.924 123.304 387.7C122.92 387.476 122.628 387.16 122.428 386.752C122.236 386.344 122.14 385.884 122.14 385.372C122.14 384.796 122.264 384.304 122.512 383.896C122.76 383.488 123.104 383.176 123.544 382.96C123.984 382.736 124.488 382.624 125.056 382.624C125.56 382.624 126.008 382.696 126.4 382.84C126.792 382.976 127.12 383.2 127.384 383.512C127.656 383.824 127.86 384.24 127.996 384.76C128.14 385.272 128.212 385.9 128.212 386.644C128.212 387.484 128.144 388.192 128.008 388.768C127.872 389.344 127.672 389.808 127.408 390.16C127.152 390.504 126.828 390.756 126.436 390.916C126.052 391.068 125.612 391.144 125.116 391.144ZM125.116 386.812C125.412 386.812 125.656 386.752 125.848 386.632C126.048 386.504 126.192 386.332 126.28 386.116C126.376 385.892 126.424 385.64 126.424 385.36C126.424 385.072 126.376 384.82 126.28 384.604C126.192 384.388 126.048 384.22 125.848 384.1C125.656 383.972 125.412 383.908 125.116 383.908C124.828 383.908 124.588 383.972 124.396 384.1C124.204 384.228 124.06 384.4 123.964 384.616C123.868 384.832 123.82 385.08 123.82 385.36C123.82 385.648 123.868 385.9 123.964 386.116C124.06 386.332 124.204 386.504 124.396 386.632C124.588 386.752 124.828 386.812 125.116 386.812ZM131.149 391L136.957 382.768H138.145L132.325 391H131.149ZM131.761 386.944C131.337 386.944 130.973 386.872 130.669 386.728C130.373 386.584 130.145 386.356 129.985 386.044C129.833 385.732 129.757 385.312 129.757 384.784C129.757 384.256 129.833 383.836 129.985 383.524C130.145 383.204 130.373 382.976 130.669 382.84C130.973 382.696 131.337 382.624 131.761 382.624C132.193 382.624 132.557 382.696 132.853 382.84C133.149 382.976 133.373 383.204 133.525 383.524C133.685 383.836 133.765 384.256 133.765 384.784C133.765 385.312 133.685 385.736 133.525 386.056C133.373 386.368 133.149 386.596 132.853 386.74C132.557 386.876 132.193 386.944 131.761 386.944ZM131.761 386.044C132.081 386.044 132.293 385.94 132.397 385.732C132.501 385.516 132.553 385.232 132.553 384.88V384.676C132.553 384.444 132.529 384.244 132.481 384.076C132.441 383.9 132.361 383.764 132.241 383.668C132.129 383.564 131.969 383.512 131.761 383.512C131.457 383.512 131.249 383.62 131.137 383.836C131.033 384.052 130.981 384.332 130.981 384.676V384.88C130.981 385.232 131.033 385.516 131.137 385.732C131.249 385.94 131.457 386.044 131.761 386.044ZM137.509 391.144C137.085 391.144 136.721 391.072 136.417 390.928C136.121 390.784 135.893 390.556 135.733 390.244C135.581 389.932 135.505 389.512 135.505 388.984C135.505 388.456 135.581 388.036 135.733 387.724C135.893 387.404 136.121 387.176 136.417 387.04C136.721 386.896 137.085 386.824 137.509 386.824C137.941 386.824 138.305 386.896 138.601 387.04C138.905 387.176 139.133 387.404 139.285 387.724C139.437 388.036 139.513 388.456 139.513 388.984C139.513 389.512 139.437 389.936 139.285 390.256C139.133 390.568 138.905 390.796 138.601 390.94C138.305 391.076 137.941 391.144 137.509 391.144ZM137.509 390.256C137.821 390.256 138.029 390.148 138.133 389.932C138.237 389.716 138.289 389.432 138.289 389.08V388.876C138.289 388.644 138.265 388.444 138.217 388.276C138.177 388.1 138.101 387.964 137.989 387.868C137.885 387.764 137.725 387.712 137.509 387.712C137.205 387.712 136.997 387.82 136.885 388.036C136.781 388.252 136.729 388.532 136.729 388.876V389.08C136.729 389.432 136.781 389.716 136.885 389.932C136.997 390.148 137.205 390.256 137.509 390.256ZM146.041 391.144C145.433 391.144 144.921 391.028 144.505 390.796C144.097 390.556 143.785 390.192 143.569 389.704C143.361 389.208 143.257 388.588 143.257 387.844C143.257 387.1 143.361 386.484 143.569 385.996C143.785 385.508 144.101 385.144 144.517 384.904C144.941 384.664 145.461 384.544 146.077 384.544C146.509 384.544 146.881 384.6 147.193 384.712C147.513 384.824 147.777 384.988 147.985 385.204C148.193 385.42 148.345 385.68 148.441 385.984C148.545 386.288 148.597 386.636 148.597 387.028H147.529C147.529 386.66 147.477 386.36 147.373 386.128C147.277 385.888 147.121 385.712 146.905 385.6C146.689 385.48 146.405 385.42 146.053 385.42C145.701 385.42 145.397 385.5 145.141 385.66C144.885 385.812 144.689 386.056 144.553 386.392C144.417 386.728 144.349 387.172 144.349 387.724V387.976C144.349 388.496 144.413 388.928 144.541 389.272C144.677 389.616 144.873 389.868 145.129 390.028C145.385 390.188 145.697 390.268 146.065 390.268C146.425 390.268 146.713 390.204 146.929 390.076C147.153 389.948 147.313 389.764 147.409 389.524C147.513 389.284 147.565 388.996 147.565 388.66H148.597C148.597 389.012 148.545 389.34 148.441 389.644C148.345 389.948 148.193 390.212 147.985 390.436C147.777 390.66 147.513 390.836 147.193 390.964C146.873 391.084 146.489 391.144 146.041 391.144ZM149.863 391V382.324H150.919V385.48H151.003C151.163 385.264 151.343 385.088 151.543 384.952C151.743 384.816 151.963 384.716 152.203 384.652C152.451 384.58 152.719 384.544 153.007 384.544C153.407 384.544 153.755 384.612 154.051 384.748C154.355 384.884 154.591 385.104 154.759 385.408C154.935 385.712 155.023 386.124 155.023 386.644V391H153.967V386.788C153.967 386.524 153.931 386.308 153.859 386.14C153.795 385.972 153.703 385.84 153.583 385.744C153.471 385.648 153.331 385.58 153.163 385.54C153.003 385.5 152.823 385.48 152.623 385.48C152.327 385.48 152.047 385.552 151.783 385.696C151.519 385.832 151.307 386.036 151.147 386.308C150.995 386.572 150.919 386.9 150.919 387.292V391H149.863ZM159.145 391.144C158.521 391.144 157.993 391.028 157.561 390.796C157.137 390.556 156.813 390.192 156.589 389.704C156.373 389.216 156.265 388.596 156.265 387.844C156.265 387.084 156.373 386.464 156.589 385.984C156.813 385.496 157.141 385.136 157.573 384.904C158.005 384.664 158.545 384.544 159.193 384.544C159.785 384.544 160.281 384.66 160.681 384.892C161.081 385.116 161.381 385.456 161.581 385.912C161.789 386.36 161.893 386.924 161.893 387.604V388.108H157.357C157.373 388.612 157.445 389.028 157.573 389.356C157.709 389.676 157.909 389.912 158.173 390.064C158.437 390.208 158.769 390.28 159.169 390.28C159.441 390.28 159.677 390.248 159.877 390.184C160.085 390.112 160.257 390.012 160.393 389.884C160.537 389.756 160.645 389.604 160.717 389.428C160.789 389.252 160.829 389.06 160.837 388.852H161.869C161.861 389.188 161.797 389.5 161.677 389.788C161.557 390.068 161.381 390.308 161.149 390.508C160.917 390.708 160.633 390.864 160.297 390.976C159.961 391.088 159.577 391.144 159.145 391.144ZM157.381 387.316H160.801C160.801 386.964 160.761 386.668 160.681 386.428C160.601 386.188 160.485 385.992 160.333 385.84C160.189 385.688 160.017 385.58 159.817 385.516C159.625 385.444 159.405 385.408 159.157 385.408C158.789 385.408 158.477 385.476 158.221 385.612C157.965 385.748 157.769 385.956 157.633 386.236C157.497 386.516 157.413 386.876 157.381 387.316ZM165.599 391.144C164.991 391.144 164.479 391.028 164.063 390.796C163.655 390.556 163.343 390.192 163.127 389.704C162.919 389.208 162.815 388.588 162.815 387.844C162.815 387.1 162.919 386.484 163.127 385.996C163.343 385.508 163.659 385.144 164.075 384.904C164.499 384.664 165.019 384.544 165.635 384.544C166.067 384.544 166.439 384.6 166.751 384.712C167.071 384.824 167.335 384.988 167.543 385.204C167.751 385.42 167.903 385.68 167.999 385.984C168.103 386.288 168.155 386.636 168.155 387.028H167.087C167.087 386.66 167.035 386.36 166.931 386.128C166.835 385.888 166.679 385.712 166.463 385.6C166.247 385.48 165.963 385.42 165.611 385.42C165.259 385.42 164.955 385.5 164.699 385.66C164.443 385.812 164.247 386.056 164.111 386.392C163.975 386.728 163.907 387.172 163.907 387.724V387.976C163.907 388.496 163.971 388.928 164.099 389.272C164.235 389.616 164.431 389.868 164.687 390.028C164.943 390.188 165.255 390.268 165.623 390.268C165.983 390.268 166.271 390.204 166.487 390.076C166.711 389.948 166.871 389.764 166.967 389.524C167.071 389.284 167.123 388.996 167.123 388.66H168.155C168.155 389.012 168.103 389.34 167.999 389.644C167.903 389.948 167.751 390.212 167.543 390.436C167.335 390.66 167.071 390.836 166.751 390.964C166.431 391.084 166.047 391.144 165.599 391.144ZM169.422 391V382.324H170.478V387.748L173.154 384.688H174.402L172.242 387.136L174.522 391H173.31L171.558 387.916L170.478 389.008V391H169.422ZM177.707 391.144C177.083 391.144 176.555 391.028 176.123 390.796C175.699 390.556 175.375 390.192 175.151 389.704C174.935 389.216 174.827 388.596 174.827 387.844C174.827 387.084 174.935 386.464 175.151 385.984C175.375 385.496 175.703 385.136 176.135 384.904C176.567 384.664 177.107 384.544 177.755 384.544C178.347 384.544 178.843 384.66 179.243 384.892C179.643 385.116 179.943 385.456 180.143 385.912C180.351 386.36 180.455 386.924 180.455 387.604V388.108H175.919C175.935 388.612 176.007 389.028 176.135 389.356C176.271 389.676 176.471 389.912 176.735 390.064C176.999 390.208 177.331 390.28 177.731 390.28C178.003 390.28 178.239 390.248 178.439 390.184C178.647 390.112 178.819 390.012 178.955 389.884C179.099 389.756 179.207 389.604 179.279 389.428C179.351 389.252 179.391 389.06 179.399 388.852H180.431C180.423 389.188 180.359 389.5 180.239 389.788C180.119 390.068 179.943 390.308 179.711 390.508C179.479 390.708 179.195 390.864 178.859 390.976C178.523 391.088 178.139 391.144 177.707 391.144ZM175.943 387.316H179.363C179.363 386.964 179.323 386.668 179.243 386.428C179.163 386.188 179.047 385.992 178.895 385.84C178.751 385.688 178.579 385.58 178.379 385.516C178.187 385.444 177.967 385.408 177.719 385.408C177.351 385.408 177.039 385.476 176.783 385.612C176.527 385.748 176.331 385.956 176.195 386.236C176.059 386.516 175.975 386.876 175.943 387.316ZM183.91 391.144C183.39 391.144 182.942 391.028 182.566 390.796C182.198 390.564 181.91 390.204 181.702 389.716C181.502 389.22 181.402 388.58 181.402 387.796C181.402 387.052 181.506 386.44 181.714 385.96C181.922 385.48 182.21 385.124 182.578 384.892C182.946 384.66 183.374 384.544 183.862 384.544C184.142 384.544 184.402 384.576 184.642 384.64C184.882 384.704 185.094 384.804 185.278 384.94C185.47 385.076 185.638 385.256 185.782 385.48H185.854V382.324H186.91V391H186.058L185.962 390.1H185.878C185.662 390.452 185.382 390.716 185.038 390.892C184.694 391.06 184.318 391.144 183.91 391.144ZM184.162 390.22C184.562 390.22 184.886 390.132 185.134 389.956C185.382 389.78 185.562 389.524 185.674 389.188C185.794 388.852 185.854 388.436 185.854 387.94V387.748C185.854 387.316 185.81 386.952 185.722 386.656C185.634 386.36 185.514 386.124 185.362 385.948C185.21 385.772 185.034 385.648 184.834 385.576C184.634 385.504 184.422 385.468 184.198 385.468C183.806 385.468 183.486 385.548 183.238 385.708C182.99 385.86 182.806 386.104 182.686 386.44C182.566 386.768 182.506 387.196 182.506 387.724V387.976C182.506 388.52 182.57 388.96 182.698 389.296C182.826 389.624 183.01 389.86 183.25 390.004C183.498 390.148 183.802 390.22 184.162 390.22ZM191.078 383.5V382.324H192.134V383.5H191.078ZM191.078 391V384.688H192.134V391H191.078ZM193.773 391V384.688H194.625L194.721 385.636H194.805C194.973 385.38 195.161 385.172 195.369 385.012C195.585 384.852 195.821 384.736 196.077 384.664C196.341 384.584 196.621 384.544 196.917 384.544C197.317 384.544 197.665 384.612 197.961 384.748C198.265 384.884 198.501 385.104 198.669 385.408C198.845 385.712 198.933 386.124 198.933 386.644V391H197.877V386.788C197.877 386.524 197.841 386.308 197.769 386.14C197.705 385.972 197.613 385.84 197.493 385.744C197.381 385.648 197.241 385.58 197.073 385.54C196.913 385.5 196.733 385.48 196.533 385.48C196.237 385.48 195.957 385.552 195.693 385.696C195.429 385.84 195.217 386.048 195.057 386.32C194.905 386.592 194.829 386.916 194.829 387.292V391H193.773Z" fill="#232323"/>
<circle cx="102.5" cy="403.5" r="6" fill="#FF9471"/>
<path d="M118.076 408.144C117.38 408.144 116.804 408.04 116.348 407.832C115.9 407.624 115.564 407.34 115.34 406.98C115.124 406.612 115.016 406.2 115.016 405.744C115.016 405.28 115.124 404.888 115.34 404.568C115.564 404.24 115.9 403.98 116.348 403.788C115.964 403.556 115.684 403.288 115.508 402.984C115.34 402.672 115.256 402.324 115.256 401.94C115.256 401.492 115.364 401.096 115.58 400.752C115.796 400.4 116.116 400.124 116.54 399.924C116.964 399.724 117.476 399.624 118.076 399.624C118.668 399.624 119.172 399.724 119.588 399.924C120.012 400.124 120.336 400.4 120.56 400.752C120.784 401.096 120.896 401.492 120.896 401.94C120.896 402.324 120.804 402.672 120.62 402.984C120.444 403.296 120.168 403.564 119.792 403.788C120.248 403.98 120.584 404.24 120.8 404.568C121.016 404.888 121.124 405.28 121.124 405.744C121.124 406.2 121.012 406.612 120.788 406.98C120.572 407.34 120.236 407.624 119.78 407.832C119.332 408.04 118.764 408.144 118.076 408.144ZM118.076 406.86C118.5 406.86 118.828 406.752 119.06 406.536C119.3 406.32 119.42 406.024 119.42 405.648C119.42 405.256 119.3 404.956 119.06 404.748C118.82 404.532 118.492 404.424 118.076 404.424C117.652 404.424 117.32 404.532 117.08 404.748C116.84 404.956 116.72 405.256 116.72 405.648C116.72 406.024 116.836 406.32 117.068 406.536C117.308 406.752 117.644 406.86 118.076 406.86ZM118.076 403.164C118.436 403.164 118.728 403.068 118.952 402.876C119.176 402.684 119.288 402.404 119.288 402.036C119.288 401.668 119.176 401.388 118.952 401.196C118.736 400.996 118.444 400.896 118.076 400.896C117.7 400.896 117.404 400.996 117.188 401.196C116.972 401.388 116.864 401.668 116.864 402.036C116.864 402.404 116.972 402.684 117.188 402.876C117.404 403.068 117.7 403.164 118.076 403.164ZM124.012 408L129.82 399.768H131.008L125.188 408H124.012ZM124.624 403.944C124.2 403.944 123.836 403.872 123.532 403.728C123.236 403.584 123.008 403.356 122.848 403.044C122.696 402.732 122.62 402.312 122.62 401.784C122.62 401.256 122.696 400.836 122.848 400.524C123.008 400.204 123.236 399.976 123.532 399.84C123.836 399.696 124.2 399.624 124.624 399.624C125.056 399.624 125.42 399.696 125.716 399.84C126.012 399.976 126.236 400.204 126.388 400.524C126.548 400.836 126.628 401.256 126.628 401.784C126.628 402.312 126.548 402.736 126.388 403.056C126.236 403.368 126.012 403.596 125.716 403.74C125.42 403.876 125.056 403.944 124.624 403.944ZM124.624 403.044C124.944 403.044 125.156 402.94 125.26 402.732C125.364 402.516 125.416 402.232 125.416 401.88V401.676C125.416 401.444 125.392 401.244 125.344 401.076C125.304 400.9 125.224 400.764 125.104 400.668C124.992 400.564 124.832 400.512 124.624 400.512C124.32 400.512 124.112 400.62 124 400.836C123.896 401.052 123.844 401.332 123.844 401.676V401.88C123.844 402.232 123.896 402.516 124 402.732C124.112 402.94 124.32 403.044 124.624 403.044ZM130.372 408.144C129.948 408.144 129.584 408.072 129.28 407.928C128.984 407.784 128.756 407.556 128.596 407.244C128.444 406.932 128.368 406.512 128.368 405.984C128.368 405.456 128.444 405.036 128.596 404.724C128.756 404.404 128.984 404.176 129.28 404.04C129.584 403.896 129.948 403.824 130.372 403.824C130.804 403.824 131.168 403.896 131.464 404.04C131.768 404.176 131.996 404.404 132.148 404.724C132.3 405.036 132.376 405.456 132.376 405.984C132.376 406.512 132.3 406.936 132.148 407.256C131.996 407.568 131.768 407.796 131.464 407.94C131.168 408.076 130.804 408.144 130.372 408.144ZM130.372 407.256C130.684 407.256 130.892 407.148 130.996 406.932C131.1 406.716 131.152 406.432 131.152 406.08V405.876C131.152 405.644 131.128 405.444 131.08 405.276C131.04 405.1 130.964 404.964 130.852 404.868C130.748 404.764 130.588 404.712 130.372 404.712C130.068 404.712 129.86 404.82 129.748 405.036C129.644 405.252 129.592 405.532 129.592 405.876V406.08C129.592 406.432 129.644 406.716 129.748 406.932C129.86 407.148 130.068 407.256 130.372 407.256ZM136.504 410.076V401.688H137.344L137.452 402.588H137.536C137.752 402.236 138.028 401.976 138.364 401.808C138.7 401.632 139.08 401.544 139.504 401.544C140.032 401.544 140.48 401.66 140.848 401.892C141.216 402.124 141.5 402.488 141.7 402.984C141.9 403.472 142 404.108 142 404.892C142 405.628 141.896 406.24 141.688 406.728C141.488 407.208 141.204 407.564 140.836 407.796C140.468 408.028 140.04 408.144 139.552 408.144C139.28 408.144 139.024 408.112 138.784 408.048C138.544 407.984 138.328 407.884 138.136 407.748C137.944 407.604 137.776 407.424 137.632 407.208H137.56V410.076H136.504ZM139.216 407.22C139.608 407.22 139.928 407.144 140.176 406.992C140.424 406.832 140.608 406.588 140.728 406.26C140.848 405.924 140.908 405.496 140.908 404.976V404.724C140.908 404.172 140.844 403.732 140.716 403.404C140.588 403.068 140.4 402.828 140.152 402.684C139.912 402.54 139.612 402.468 139.252 402.468C138.86 402.468 138.536 402.556 138.28 402.732C138.032 402.9 137.848 403.156 137.728 403.5C137.616 403.844 137.56 404.264 137.56 404.76V404.94C137.56 405.38 137.6 405.748 137.68 406.044C137.768 406.332 137.888 406.564 138.04 406.74C138.2 406.916 138.38 407.04 138.58 407.112C138.78 407.184 138.992 407.22 139.216 407.22ZM145.904 408.144C145.264 408.144 144.724 408.028 144.284 407.796C143.852 407.556 143.52 407.192 143.288 406.704C143.064 406.216 142.952 405.596 142.952 404.844C142.952 404.084 143.064 403.464 143.288 402.984C143.52 402.496 143.852 402.136 144.284 401.904C144.724 401.664 145.264 401.544 145.904 401.544C146.544 401.544 147.08 401.664 147.512 401.904C147.952 402.136 148.284 402.496 148.508 402.984C148.732 403.464 148.844 404.084 148.844 404.844C148.844 405.596 148.732 406.216 148.508 406.704C148.284 407.192 147.952 407.556 147.512 407.796C147.08 408.028 146.544 408.144 145.904 408.144ZM145.904 407.256C146.312 407.256 146.652 407.176 146.924 407.016C147.196 406.856 147.4 406.608 147.536 406.272C147.68 405.928 147.752 405.496 147.752 404.976V404.712C147.752 404.184 147.68 403.752 147.536 403.416C147.4 403.08 147.196 402.832 146.924 402.672C146.652 402.512 146.312 402.432 145.904 402.432C145.496 402.432 145.152 402.512 144.872 402.672C144.6 402.832 144.396 403.08 144.26 403.416C144.124 403.752 144.056 404.184 144.056 404.712V404.976C144.056 405.496 144.124 405.928 144.26 406.272C144.396 406.608 144.6 406.856 144.872 407.016C145.152 407.176 145.496 407.256 145.904 407.256ZM152.364 408.144C151.932 408.144 151.552 408.1 151.224 408.012C150.896 407.924 150.624 407.796 150.408 407.628C150.192 407.46 150.028 407.26 149.916 407.028C149.804 406.796 149.748 406.532 149.748 406.236C149.748 406.196 149.748 406.16 149.748 406.128C149.748 406.088 149.752 406.056 149.76 406.032H150.804C150.796 406.064 150.792 406.092 150.792 406.116C150.792 406.14 150.792 406.164 150.792 406.188C150.8 406.468 150.872 406.688 151.008 406.848C151.152 407.008 151.348 407.12 151.596 407.184C151.844 407.248 152.12 407.28 152.424 407.28C152.688 407.28 152.932 407.248 153.156 407.184C153.38 407.112 153.556 407.008 153.684 406.872C153.82 406.728 153.888 406.548 153.888 406.332C153.888 406.068 153.8 405.868 153.624 405.732C153.456 405.588 153.232 405.476 152.952 405.396C152.672 405.316 152.38 405.232 152.076 405.144C151.82 405.072 151.564 404.992 151.308 404.904C151.052 404.816 150.82 404.708 150.612 404.58C150.412 404.452 150.248 404.288 150.12 404.088C150 403.88 149.94 403.62 149.94 403.308C149.94 403.028 149.996 402.78 150.108 402.564C150.228 402.348 150.396 402.164 150.612 402.012C150.828 401.86 151.088 401.748 151.392 401.676C151.704 401.596 152.048 401.556 152.424 401.556C152.824 401.556 153.172 401.6 153.468 401.688C153.772 401.776 154.024 401.9 154.224 402.06C154.424 402.22 154.572 402.404 154.668 402.612C154.764 402.812 154.812 403.028 154.812 403.26C154.812 403.308 154.812 403.356 154.812 403.404C154.812 403.444 154.808 403.476 154.8 403.5H153.768V403.368C153.768 403.208 153.724 403.056 153.636 402.912C153.556 402.76 153.412 402.64 153.204 402.552C153.004 402.456 152.724 402.408 152.364 402.408C152.132 402.408 151.932 402.428 151.764 402.468C151.596 402.5 151.456 402.556 151.344 402.636C151.232 402.708 151.148 402.796 151.092 402.9C151.036 402.996 151.008 403.108 151.008 403.236C151.008 403.444 151.076 403.604 151.212 403.716C151.348 403.828 151.528 403.92 151.752 403.992C151.984 404.064 152.232 404.144 152.496 404.232C152.776 404.312 153.06 404.396 153.348 404.484C153.644 404.564 153.912 404.668 154.152 404.796C154.4 404.924 154.596 405.1 154.74 405.324C154.892 405.54 154.968 405.828 154.968 406.188C154.968 406.524 154.904 406.816 154.776 407.064C154.648 407.312 154.464 407.516 154.224 407.676C153.992 407.836 153.716 407.952 153.396 408.024C153.084 408.104 152.74 408.144 152.364 408.144ZM157.749 408.144C157.421 408.144 157.165 408.084 156.981 407.964C156.797 407.836 156.665 407.672 156.585 407.472C156.505 407.264 156.465 407.044 156.465 406.812V402.576H155.649V401.688H156.489L156.681 399.924H157.521V401.688H158.709V402.576H157.521V406.656C157.521 406.856 157.557 407.008 157.629 407.112C157.701 407.208 157.837 407.256 158.037 407.256H158.709V407.952C158.629 407.992 158.533 408.024 158.421 408.048C158.309 408.072 158.193 408.092 158.073 408.108C157.961 408.132 157.853 408.144 157.749 408.144ZM164.744 408.144C164.136 408.144 163.624 408.028 163.208 407.796C162.8 407.556 162.488 407.192 162.272 406.704C162.064 406.208 161.96 405.588 161.96 404.844C161.96 404.1 162.064 403.484 162.272 402.996C162.488 402.508 162.804 402.144 163.22 401.904C163.644 401.664 164.164 401.544 164.78 401.544C165.212 401.544 165.584 401.6 165.896 401.712C166.216 401.824 166.48 401.988 166.688 402.204C166.896 402.42 167.048 402.68 167.144 402.984C167.248 403.288 167.3 403.636 167.3 404.028H166.232C166.232 403.66 166.18 403.36 166.076 403.128C165.98 402.888 165.824 402.712 165.608 402.6C165.392 402.48 165.108 402.42 164.756 402.42C164.404 402.42 164.1 402.5 163.844 402.66C163.588 402.812 163.392 403.056 163.256 403.392C163.12 403.728 163.052 404.172 163.052 404.724V404.976C163.052 405.496 163.116 405.928 163.244 406.272C163.38 406.616 163.576 406.868 163.832 407.028C164.088 407.188 164.4 407.268 164.768 407.268C165.128 407.268 165.416 407.204 165.632 407.076C165.856 406.948 166.016 406.764 166.112 406.524C166.216 406.284 166.268 405.996 166.268 405.66H167.3C167.3 406.012 167.248 406.34 167.144 406.644C167.048 406.948 166.896 407.212 166.688 407.436C166.48 407.66 166.216 407.836 165.896 407.964C165.576 408.084 165.192 408.144 164.744 408.144ZM168.566 408V399.324H169.622V402.48H169.706C169.866 402.264 170.046 402.088 170.246 401.952C170.446 401.816 170.666 401.716 170.906 401.652C171.154 401.58 171.422 401.544 171.71 401.544C172.11 401.544 172.458 401.612 172.754 401.748C173.058 401.884 173.294 402.104 173.462 402.408C173.638 402.712 173.726 403.124 173.726 403.644V408H172.67V403.788C172.67 403.524 172.634 403.308 172.562 403.14C172.498 402.972 172.406 402.84 172.286 402.744C172.174 402.648 172.034 402.58 171.866 402.54C171.706 402.5 171.526 402.48 171.326 402.48C171.03 402.48 170.75 402.552 170.486 402.696C170.222 402.832 170.01 403.036 169.85 403.308C169.698 403.572 169.622 403.9 169.622 404.292V408H168.566ZM177.848 408.144C177.224 408.144 176.696 408.028 176.264 407.796C175.84 407.556 175.516 407.192 175.292 406.704C175.076 406.216 174.968 405.596 174.968 404.844C174.968 404.084 175.076 403.464 175.292 402.984C175.516 402.496 175.844 402.136 176.276 401.904C176.708 401.664 177.248 401.544 177.896 401.544C178.488 401.544 178.984 401.66 179.384 401.892C179.784 402.116 180.084 402.456 180.284 402.912C180.492 403.36 180.596 403.924 180.596 404.604V405.108H176.06C176.076 405.612 176.148 406.028 176.276 406.356C176.412 406.676 176.612 406.912 176.876 407.064C177.14 407.208 177.472 407.28 177.872 407.28C178.144 407.28 178.38 407.248 178.58 407.184C178.788 407.112 178.96 407.012 179.096 406.884C179.24 406.756 179.348 406.604 179.42 406.428C179.492 406.252 179.532 406.06 179.54 405.852H180.572C180.564 406.188 180.5 406.5 180.38 406.788C180.26 407.068 180.084 407.308 179.852 407.508C179.62 407.708 179.336 407.864 179 407.976C178.664 408.088 178.28 408.144 177.848 408.144ZM176.084 404.316H179.504C179.504 403.964 179.464 403.668 179.384 403.428C179.304 403.188 179.188 402.992 179.036 402.84C178.892 402.688 178.72 402.58 178.52 402.516C178.328 402.444 178.108 402.408 177.86 402.408C177.492 402.408 177.18 402.476 176.924 402.612C176.668 402.748 176.472 402.956 176.336 403.236C176.2 403.516 176.116 403.876 176.084 404.316ZM184.302 408.144C183.694 408.144 183.182 408.028 182.766 407.796C182.358 407.556 182.046 407.192 181.83 406.704C181.622 406.208 181.518 405.588 181.518 404.844C181.518 404.1 181.622 403.484 181.83 402.996C182.046 402.508 182.362 402.144 182.778 401.904C183.202 401.664 183.722 401.544 184.338 401.544C184.77 401.544 185.142 401.6 185.454 401.712C185.774 401.824 186.038 401.988 186.246 402.204C186.454 402.42 186.606 402.68 186.702 402.984C186.806 403.288 186.858 403.636 186.858 404.028H185.79C185.79 403.66 185.738 403.36 185.634 403.128C185.538 402.888 185.382 402.712 185.166 402.6C184.95 402.48 184.666 402.42 184.314 402.42C183.962 402.42 183.658 402.5 183.402 402.66C183.146 402.812 182.95 403.056 182.814 403.392C182.678 403.728 182.61 404.172 182.61 404.724V404.976C182.61 405.496 182.674 405.928 182.802 406.272C182.938 406.616 183.134 406.868 183.39 407.028C183.646 407.188 183.958 407.268 184.326 407.268C184.686 407.268 184.974 407.204 185.19 407.076C185.414 406.948 185.574 406.764 185.67 406.524C185.774 406.284 185.826 405.996 185.826 405.66H186.858C186.858 406.012 186.806 406.34 186.702 406.644C186.606 406.948 186.454 407.212 186.246 407.436C186.038 407.66 185.774 407.836 185.454 407.964C185.134 408.084 184.75 408.144 184.302 408.144ZM188.125 408V399.324H189.181V404.748L191.857 401.688H193.105L190.945 404.136L193.225 408H192.013L190.261 404.916L189.181 406.008V408H188.125ZM193.343 405.288V404.22H196.379V405.288H193.343ZM200.279 408.144C199.639 408.144 199.099 408.028 198.659 407.796C198.227 407.556 197.895 407.192 197.663 406.704C197.439 406.216 197.327 405.596 197.327 404.844C197.327 404.084 197.439 403.464 197.663 402.984C197.895 402.496 198.227 402.136 198.659 401.904C199.099 401.664 199.639 401.544 200.279 401.544C200.919 401.544 201.455 401.664 201.887 401.904C202.327 402.136 202.659 402.496 202.883 402.984C203.107 403.464 203.219 404.084 203.219 404.844C203.219 405.596 203.107 406.216 202.883 406.704C202.659 407.192 202.327 407.556 201.887 407.796C201.455 408.028 200.919 408.144 200.279 408.144ZM200.279 407.256C200.687 407.256 201.027 407.176 201.299 407.016C201.571 406.856 201.775 406.608 201.911 406.272C202.055 405.928 202.127 405.496 202.127 404.976V404.712C202.127 404.184 202.055 403.752 201.911 403.416C201.775 403.08 201.571 402.832 201.299 402.672C201.027 402.512 200.687 402.432 200.279 402.432C199.871 402.432 199.527 402.512 199.247 402.672C198.975 402.832 198.771 403.08 198.635 403.416C198.499 403.752 198.431 404.184 198.431 404.712V404.976C198.431 405.496 198.499 405.928 198.635 406.272C198.771 406.608 198.975 406.856 199.247 407.016C199.527 407.176 199.871 407.256 200.279 407.256ZM206.487 408.144C205.879 408.144 205.391 407.988 205.023 407.676C204.655 407.364 204.471 406.82 204.471 406.044V401.688H205.527V405.9C205.527 406.164 205.559 406.38 205.623 406.548C205.687 406.716 205.779 406.848 205.899 406.944C206.019 407.04 206.159 407.108 206.319 407.148C206.487 407.188 206.667 407.208 206.859 407.208C207.163 407.208 207.443 407.136 207.699 406.992C207.955 406.848 208.163 406.64 208.323 406.368C208.491 406.088 208.575 405.764 208.575 405.396V401.688H209.631V408H208.779L208.683 407.052H208.599C208.431 407.308 208.239 407.516 208.023 407.676C207.815 407.836 207.579 407.952 207.315 408.024C207.059 408.104 206.783 408.144 206.487 408.144ZM212.745 408.144C212.417 408.144 212.161 408.084 211.977 407.964C211.793 407.836 211.661 407.672 211.581 407.472C211.501 407.264 211.461 407.044 211.461 406.812V402.576H210.645V401.688H211.485L211.677 399.924H212.517V401.688H213.705V402.576H212.517V406.656C212.517 406.856 212.553 407.008 212.625 407.112C212.697 407.208 212.833 407.256 213.033 407.256H213.705V407.952C213.625 407.992 213.529 408.024 213.417 408.048C213.305 408.072 213.189 408.092 213.069 408.108C212.957 408.132 212.849 408.144 212.745 408.144Z" fill="#232323"/>
</svg>
