<svg width="24" height="24" viewBox="0 0 24 24" fill="none" xmlns="http://www.w3.org/2000/svg">
<path d="M9.5998 6.0002V8.4002H14.3998V6.0002C14.3998 4.67645 13.3236 3.6002 11.9998 3.6002C10.6761 3.6002 9.5998 4.67645 9.5998 6.0002ZM7.1998 8.4002V6.0002C7.1998 3.34895 9.34855 1.2002 11.9998 1.2002C14.6511 1.2002 16.7998 3.34895 16.7998 6.0002V8.4002C18.1236 8.4002 19.1998 9.47645 19.1998 10.8002V19.2002C19.1998 20.5239 18.1236 21.6002 16.7998 21.6002H7.1998C5.87605 21.6002 4.7998 20.5239 4.7998 19.2002V10.8002C4.7998 9.47645 5.87605 8.4002 7.1998 8.4002Z" fill="#C63200"/>
</svg>
