<svg width="50" height="50" viewBox="0 0 50 50" fill="none" xmlns="http://www.w3.org/2000/svg">
<rect width="50" height="50" rx="25" fill="white"/>
<path d="M18.9717 35.9162H14.4444V21.3402H18.9717V35.9162ZM16.7056 19.3519C15.2582 19.3519 14.0837 18.1531 14.0837 16.7057C14.0837 16.0088 14.3615 15.346 14.8537 14.8538C15.3459 14.3616 16.0136 14.0839 16.7056 14.0839C17.3976 14.0839 18.0652 14.3616 18.5574 14.8538C19.0496 15.346 19.3274 16.0137 19.3274 16.7057C19.3274 18.1531 18.1529 19.3519 16.7056 19.3519ZM35.9112 35.9162H31.3937V28.8207C31.3937 27.1297 31.3596 24.9611 29.0399 24.9611C26.6861 24.9611 26.3255 26.7983 26.3255 28.6989V35.9162H21.803V21.3402H26.1451V23.3285H26.2085C26.8128 22.1833 28.2894 20.9747 30.4921 20.9747C35.073 20.9747 35.9161 23.9913 35.9161 27.9094V35.9162H35.9112Z" fill="#C63200"/>
</svg>
