<svg width="54" height="42" viewBox="0 0 54 42" fill="none" xmlns="http://www.w3.org/2000/svg">
<path d="M50.2744 38.6156C43.7209 33.458 45.0263 28.3786 44.2364 22.5577C44.1065 21.6001 42.8973 21.4656 42.4776 22.3361L36.7411 34.2342C36.6683 34.3852 36.6352 34.5517 36.6289 34.7192C36.5305 37.3599 34.0144 39.7802 49.5499 40.7782C50.6451 40.8486 51.1367 39.2943 50.2744 38.6156Z" fill="#232323" stroke="black" stroke-width="2.0915"/>
<path d="M3.33878 35.2862C8.78561 35.2628 11.9714 26.3469 13.3484 19.6472C13.5581 18.6269 15.0138 18.4127 15.4632 19.3524L22.0639 33.1537C22.3319 33.7142 22.059 34.3823 21.4713 34.5835C13.1896 37.4191 -0.397891 41.0175 2.36428 35.8004C2.54896 35.4515 2.94408 35.2879 3.33878 35.2862Z" fill="#232323" stroke="black" stroke-width="2.0915"/>
<path d="M29.7459 39.8421C53.3711 32.8114 41.1737 13.3344 29.9716 2.8681C29.6154 2.53526 29.0542 2.52097 28.6573 2.80406C-0.899591 23.884 25.6339 38.1138 29.018 39.7883C29.2413 39.8988 29.507 39.9132 29.7459 39.8421Z" fill="#F0B798" stroke="black" stroke-width="2.0915"/>
<path d="M29.3315 3.18136C28.6086 15.6835 18.4807 18.1008 11.996 17.6632C11.2107 17.6102 10.9501 16.8098 11.5349 16.283C13.5419 14.4753 18.2313 10.3965 27.6962 2.4056C28.3658 1.84027 29.3821 2.30647 29.3315 3.18136Z" fill="#232323" stroke="black" stroke-width="2.0915"/>
<path d="M44.3972 21.7386C38.2059 20.2482 31.9303 9.64886 29.3685 2.9968C29.1004 2.30046 29.6618 1.58959 30.3928 1.73914C36.263 2.93995 41.1306 8.47089 45.3638 20.5409C45.6 21.2144 45.0912 21.9057 44.3972 21.7386Z" fill="#232323" stroke="black" stroke-width="2.0915"/>
<path d="M23.1663 20.5326C23.2327 20.599 23.3665 20.7328 23.4676 20.8339C23.4691 20.8354 23.3695 20.7358 23.2684 20.6845C23.1673 20.6332 23.0677 20.6332 22.9651 20.6332" stroke="black" stroke-width="2.0915" stroke-linecap="round"/>
<path d="M37.6534 21.1361C37.5196 21.2689 37.4522 21.6381 37.502 21.7891C37.5518 21.8404 37.6514 21.8404 37.7027 21.7574C37.754 21.6744 37.754 21.5084 37.754 21.3373" stroke="black" stroke-width="2.0915" stroke-linecap="round"/>
<path d="M29.8058 23.4501C29.6388 23.6503 29.3711 24.0517 29.1025 24.4712C28.8027 24.9396 28.6327 25.3596 28.515 25.8289C28.474 25.9922 28.4979 26.2288 28.5477 26.3817C28.8993 26.7027 29.2343 26.9029 29.4853 27.1207C29.6035 27.2057 29.7031 27.2389 29.9064 27.2731" stroke="black" stroke-width="1.04575" stroke-linecap="round"/>
<path d="M30.4026 32.0551C30.3491 31.9833 30.098 31.9114 29.7019 31.9198C29.624 31.9215 29.6109 32 29.6106 32.0543C29.6094 32.3049 29.9155 32.5757 30.2214 32.8641C30.4724 33.1007 30.6715 33.2961 30.8341 33.5124C30.8733 33.5646 30.9059 33.6202 30.9332 33.6121C31.1941 33.5346 31.1219 32.9213 31.2572 32.5962C31.3658 32.3354 31.4103 32.0745 31.402 31.6247C31.4002 31.5296 31.3218 31.4978 31.2675 31.4883C31.2132 31.4789 31.1597 31.4967 31.1144 31.5326C30.9788 31.7305 30.9426 31.946 30.9248 32.1348C30.907 32.2166 30.8714 32.27 30.8346 32.4331" stroke="#D03A3A" stroke-width="1.04575" stroke-linecap="round"/>
</svg>
